<svg width="20" height="20" viewBox="0 0 20 20" fill="none" xmlns="http://www.w3.org/2000/svg">
<path d="M1.45861 2.50006C1.37579 2.49889 1.29356 2.51419 1.21671 2.54508C1.13985 2.57596 1.0699 2.62181 1.01092 2.67996C0.951939 2.73812 0.905104 2.80741 0.873136 2.88382C0.841169 2.96023 0.824707 3.04223 0.824707 3.12506C0.824707 3.20789 0.841169 3.28989 0.873136 3.3663C0.905104 3.44271 0.951939 3.51201 1.01092 3.57016C1.0699 3.62832 1.13985 3.67417 1.21671 3.70505C1.29356 3.73593 1.37579 3.75123 1.45861 3.75006H2.60688C2.91019 3.75006 3.16302 3.95961 3.22049 4.25787L3.345 4.90892L4.68859 11.9654C4.93155 13.2385 6.05325 14.1667 7.34972 14.1667H15.1508C16.4473 14.1667 17.5695 13.2389 17.812 11.9654L19.1555 4.90892C19.1728 4.81857 19.1699 4.72553 19.147 4.63644C19.1241 4.54735 19.0819 4.4644 19.0233 4.39351C18.9647 4.32262 18.8912 4.26554 18.808 4.22634C18.7248 4.18714 18.6339 4.16679 18.5419 4.16673H4.47537L4.44852 4.02431C4.28055 3.14403 3.50318 2.50006 2.60688 2.50006H1.45861ZM4.71382 5.41673H17.7867L16.5839 11.7318C16.4523 12.4233 15.8552 12.9167 15.1508 12.9167H7.34972C6.64561 12.9167 6.04893 12.4233 5.91662 11.7318V11.731L4.71382 5.41673ZM8.33361 15.0001C8.00209 15.0001 7.68415 15.1318 7.44973 15.3662C7.2153 15.6006 7.08361 15.9185 7.08361 16.2501C7.08361 16.5816 7.2153 16.8995 7.44973 17.1339C7.68415 17.3684 8.00209 17.5001 8.33361 17.5001C8.66513 17.5001 8.98307 17.3684 9.21749 17.1339C9.45191 16.8995 9.58361 16.5816 9.58361 16.2501C9.58361 15.9185 9.45191 15.6006 9.21749 15.3662C8.98307 15.1318 8.66513 15.0001 8.33361 15.0001ZM14.1669 15.0001C13.8354 15.0001 13.5175 15.1318 13.2831 15.3662C13.0486 15.6006 12.9169 15.9185 12.9169 16.2501C12.9169 16.5816 13.0486 16.8995 13.2831 17.1339C13.5175 17.3684 13.8354 17.5001 14.1669 17.5001C14.4985 17.5001 14.8164 17.3684 15.0508 17.1339C15.2852 16.8995 15.4169 16.5816 15.4169 16.2501C15.4169 15.9185 15.2852 15.6006 15.0508 15.3662C14.8164 15.1318 14.4985 15.0001 14.1669 15.0001Z" fill="#2D3646"/>
</svg>
