<svg width="32" height="32" viewBox="0 0 32 32" fill="none" xmlns="http://www.w3.org/2000/svg">
<path d="M15.9993 2.66675C8.64739 2.66675 2.66602 8.64813 2.66602 16.0001C2.66602 23.352 8.64739 29.3334 15.9993 29.3334C23.3513 29.3334 29.3327 23.352 29.3327 16.0001C29.3327 8.64813 23.3513 2.66675 15.9993 2.66675ZM15.9993 4.66675C22.2704 4.66675 27.3327 9.72901 27.3327 16.0001C27.3327 22.2712 22.2704 27.3334 15.9993 27.3334C9.72827 27.3334 4.66602 22.2712 4.66602 16.0001C4.66602 9.72901 9.72827 4.66675 15.9993 4.66675ZM15.6504 7.98576C15.3854 7.9899 15.1329 8.09905 14.9483 8.28923C14.7637 8.47942 14.6622 8.73509 14.666 9.00008V17.0001C14.666 17.2653 14.7714 17.5196 14.9589 17.7072C15.1465 17.8947 15.4008 18.0001 15.666 18.0001H20.9993C21.1319 18.002 21.2634 17.9775 21.3864 17.9281C21.5094 17.8786 21.6213 17.8053 21.7156 17.7122C21.81 17.6192 21.885 17.5083 21.9361 17.3861C21.9873 17.2638 22.0136 17.1326 22.0136 17.0001C22.0136 16.8676 21.9873 16.7364 21.9361 16.6141C21.885 16.4918 21.81 16.381 21.7156 16.2879C21.6213 16.1949 21.5094 16.1215 21.3864 16.0721C21.2634 16.0227 21.1319 15.9982 20.9993 16.0001H16.666V9.00008C16.6679 8.86624 16.643 8.73337 16.5926 8.60935C16.5422 8.48534 16.4675 8.3727 16.3727 8.27811C16.278 8.18351 16.1653 8.1089 16.0412 8.05868C15.9171 8.00846 15.7842 7.98367 15.6504 7.98576Z" fill="#25B757"/>
</svg>
