<svg width="20" height="20" viewBox="0 0 20 20" fill="none" xmlns="http://www.w3.org/2000/svg">
<path d="M15.1343 2.65197C14.9345 2.44934 14.611 2.44934 14.4112 2.65197L9.99983 7.12638L5.58881 2.65197C5.38903 2.44934 5.06551 2.44934 4.86574 2.65197L2.64983 4.89955C2.45006 5.10218 2.45006 5.43032 2.64983 5.63295L6.95534 10L2.64983 14.367C2.45006 14.5697 2.45006 14.8978 2.64983 15.1004L4.86574 17.348C5.06551 17.5507 5.38903 17.5507 5.58881 17.348L9.99983 12.8736L14.4112 17.348C14.611 17.5507 14.9345 17.5507 15.1343 17.348L17.3502 15.1001C17.5499 14.8975 17.5499 14.5693 17.3502 14.3667L13.045 10L17.3502 5.6333C17.5499 5.43067 17.5499 5.10252 17.3502 4.8999L15.1343 2.65197Z" fill="white"/>
</svg>
