<svg width="26" height="26" viewBox="0 0 26 26" fill="none" xmlns="http://www.w3.org/2000/svg">
<path d="M5.68685 3.7915C3.75205 3.7915 2.16602 5.37754 2.16602 7.31234V16.5207C2.16602 18.4555 3.75205 20.0415 5.68685 20.0415H6.49935V23.0207C6.49935 24.0856 7.81414 24.7426 8.66602 24.104L14.0827 20.0415H20.3118C22.2466 20.0415 23.8327 18.4555 23.8327 16.5207V7.31234C23.8327 5.37754 22.2466 3.7915 20.3118 3.7915H5.68685ZM5.68685 5.4165H20.3118C21.3681 5.4165 22.2077 6.25605 22.2077 7.31234V16.5207C22.2077 17.577 21.3681 18.4165 20.3118 18.4165H13.8118C13.6359 18.4166 13.4648 18.4738 13.3241 18.5794L8.12435 22.479V19.229C8.12433 19.0135 8.03872 18.8069 7.88635 18.6545C7.73398 18.5021 7.52733 18.4165 7.31185 18.4165H5.68685C4.63057 18.4165 3.79102 17.577 3.79102 16.5207V7.31234C3.79102 6.25605 4.63057 5.4165 5.68685 5.4165ZM8.39518 9.20711C8.28752 9.20559 8.18062 9.22548 8.08071 9.26563C7.9808 9.30578 7.88986 9.36538 7.81319 9.44098C7.73651 9.51658 7.67563 9.60667 7.63407 9.706C7.59251 9.80533 7.57111 9.91194 7.57111 10.0196C7.57111 10.1273 7.59251 10.2339 7.63407 10.3332C7.67563 10.4326 7.73651 10.5226 7.81319 10.5982C7.88986 10.6738 7.9808 10.7334 8.08071 10.7736C8.18062 10.8137 8.28752 10.8336 8.39518 10.8321H17.6035C17.7112 10.8336 17.8181 10.8137 17.918 10.7736C18.0179 10.7334 18.1088 10.6738 18.1855 10.5982C18.2622 10.5226 18.3231 10.4326 18.3646 10.3332C18.4062 10.2339 18.4276 10.1273 18.4276 10.0196C18.4276 9.91194 18.4062 9.80533 18.3646 9.706C18.3231 9.60667 18.2622 9.51658 18.1855 9.44098C18.1088 9.36538 18.0179 9.30578 17.918 9.26563C17.8181 9.22548 17.7112 9.20559 17.6035 9.20711H8.39518ZM8.39518 12.9988C8.28752 12.9973 8.18062 13.0171 8.08071 13.0573C7.9808 13.0974 7.88986 13.1571 7.81319 13.2326C7.73651 13.3082 7.67563 13.3983 7.63407 13.4977C7.59251 13.597 7.57111 13.7036 7.57111 13.8113C7.57111 13.919 7.59251 14.0256 7.63407 14.1249C7.67563 14.2242 7.73651 14.3143 7.81319 14.3899C7.88986 14.4655 7.9808 14.5251 8.08071 14.5653C8.18062 14.6054 8.28752 14.6253 8.39518 14.6238H15.4368C15.5445 14.6253 15.6514 14.6054 15.7513 14.5653C15.8512 14.5251 15.9422 14.4655 16.0188 14.3899C16.0955 14.3143 16.1564 14.2242 16.198 14.1249C16.2395 14.0256 16.2609 13.919 16.2609 13.8113C16.2609 13.7036 16.2395 13.597 16.198 13.4977C16.1564 13.3983 16.0955 13.3082 16.0188 13.2326C15.9422 13.1571 15.8512 13.0974 15.7513 13.0573C15.6514 13.0171 15.5445 12.9973 15.4368 12.9988H8.39518Z" fill="#2D3646"/>
</svg>
