<svg width="20" height="20" viewBox="0 0 20 20" fill="none" xmlns="http://www.w3.org/2000/svg">
<path d="M10.0007 0.833252C4.94618 0.833252 0.833984 4.94545 0.833984 9.99992C0.833984 15.0544 4.94618 19.1666 10.0007 19.1666C15.0551 19.1666 19.1673 15.0544 19.1673 9.99992C19.1673 4.94545 15.0551 0.833252 10.0007 0.833252ZM10.0007 2.20825C14.312 2.20825 17.7923 5.68856 17.7923 9.99992C17.7923 14.3113 14.312 17.7916 10.0007 17.7916C5.68929 17.7916 2.20898 14.3113 2.20898 9.99992C2.20898 5.68856 5.68929 2.20825 10.0007 2.20825ZM9.76074 4.49007C9.57856 4.49292 9.40496 4.56796 9.27807 4.69871C9.15118 4.82946 9.08137 5.00523 9.08398 5.18742V10.6874C9.084 10.8697 9.15644 11.0446 9.28537 11.1735C9.4143 11.3025 9.58915 11.3749 9.77148 11.3749H13.4382C13.5293 11.3762 13.6197 11.3594 13.7042 11.3254C13.7888 11.2914 13.8657 11.241 13.9306 11.177C13.9955 11.1131 14.047 11.0368 14.0822 10.9528C14.1173 10.8687 14.1354 10.7785 14.1354 10.6874C14.1354 10.5963 14.1173 10.5061 14.0822 10.4221C14.047 10.338 13.9955 10.2618 13.9306 10.1978C13.8657 10.1338 13.7888 10.0834 13.7042 10.0494C13.6197 10.0155 13.5293 9.99863 13.4382 9.99992H10.459V5.18742C10.4603 5.0954 10.4431 5.00405 10.4085 4.91879C10.3739 4.83353 10.3225 4.75609 10.2574 4.69106C10.1922 4.62603 10.1147 4.57473 10.0294 4.54021C9.94413 4.50568 9.85276 4.48863 9.76074 4.49007Z" fill="#2D3646"/>
</svg>
