<svg width="26" height="26" viewBox="0 0 26 26" fill="none" xmlns="http://www.w3.org/2000/svg">
<path d="M13.0003 2.16675C7.02686 2.16675 2.16699 7.02662 2.16699 13.0001C2.16699 18.9735 7.02686 23.8334 13.0003 23.8334C18.9738 23.8334 23.8337 18.9735 23.8337 13.0001C23.8337 7.02662 18.9738 2.16675 13.0003 2.16675ZM13.0003 3.79175C18.0956 3.79175 22.2087 7.90483 22.2087 13.0001C22.2087 18.0953 18.0956 22.2084 13.0003 22.2084C7.90508 22.2084 3.79199 18.0953 3.79199 13.0001C3.79199 7.90483 7.90508 3.79175 13.0003 3.79175ZM13.0003 7.58341C12.713 7.58341 12.4375 7.69755 12.2343 7.90072C12.0311 8.10388 11.917 8.37943 11.917 8.66675C11.917 8.95407 12.0311 9.22962 12.2343 9.43278C12.4375 9.63594 12.713 9.75008 13.0003 9.75008C13.2876 9.75008 13.5632 9.63594 13.7664 9.43278C13.9695 9.22962 14.0837 8.95407 14.0837 8.66675C14.0837 8.37943 13.9695 8.10388 13.7664 7.90072C13.5632 7.69755 13.2876 7.58341 13.0003 7.58341ZM12.9876 11.3634C12.7723 11.3668 12.5672 11.4555 12.4172 11.61C12.2672 11.7645 12.1847 11.9723 12.1878 12.1876V18.1459C12.1863 18.2536 12.2062 18.3605 12.2463 18.4604C12.2865 18.5603 12.3461 18.6512 12.4217 18.7279C12.4973 18.8046 12.5874 18.8655 12.6867 18.907C12.786 18.9486 12.8926 18.97 13.0003 18.97C13.108 18.97 13.2146 18.9486 13.3139 18.907C13.4133 18.8655 13.5034 18.8046 13.579 18.7279C13.6546 18.6512 13.7142 18.5603 13.7543 18.4604C13.7945 18.3605 13.8143 18.2536 13.8128 18.1459V12.1876C13.8144 12.0788 13.7941 11.9709 13.7532 11.8701C13.7122 11.7694 13.6515 11.6778 13.5745 11.601C13.4976 11.5241 13.406 11.4635 13.3052 11.4227C13.2044 11.3819 13.0964 11.3617 12.9876 11.3634Z" fill="#25B757"/>
</svg>
