<svg width="26" height="26" viewBox="0 0 26 26" fill="none" xmlns="http://www.w3.org/2000/svg">
<path d="M12.2235 2.22168C12.0961 2.22547 11.9715 2.25913 11.8596 2.31996C11.7477 2.38079 11.6516 2.46708 11.5792 2.57186C11.5792 2.57186 10.7252 3.81084 9.69287 5.21777C8.66053 6.62471 7.403 8.23329 6.80575 8.79785C5.675 9.867 4.875 11.3216 4.875 12.9683V16.5208C4.875 19.9515 7.67346 22.75 11.1042 22.75H16.1632C18.2045 22.75 19.9387 21.2192 20.194 19.1943L20.4765 17.1746L20.9314 13.9246L21.1176 12.6001C21.3666 10.8224 19.9617 9.20833 18.167 9.20833H13.5787C13.9537 8.27964 14.2294 7.43883 14.4219 6.4926C14.4222 6.4926 14.4226 6.4926 14.4229 6.4926C14.5355 5.93826 14.6303 5.50336 14.6303 5.0411C14.6303 3.92721 14.0615 3.12744 13.5099 2.72738C12.9583 2.32732 12.3853 2.23226 12.3853 2.23226C12.3319 2.22334 12.2776 2.2198 12.2235 2.22168ZM12.5334 4.03288C12.545 4.04072 12.544 4.03498 12.5557 4.04346C12.789 4.21269 13.0053 4.41623 13.0053 5.0411C13.0053 5.244 12.9413 5.61928 12.8297 6.16887C12.6302 7.14975 12.4037 7.91409 11.9844 8.89307C11.9844 8.89342 11.9844 8.89377 11.9844 8.89413C11.8083 9.3065 11.8258 9.77205 12.0415 10.1573C12.2572 10.5425 12.7175 10.8333 13.2031 10.8333H18.167C19.0037 10.8333 19.6235 11.546 19.5074 12.3748L19.3223 13.7004L18.8674 16.9504L18.5838 18.9774C18.5831 18.9816 18.5824 18.9858 18.5817 18.9901C18.4281 20.2167 17.399 21.125 16.1632 21.125H11.1042C8.55162 21.125 6.5 19.0734 6.5 16.5208V12.9683C6.5 11.848 7.04412 10.8085 7.92188 9.97852C8.76924 9.17754 9.954 7.60854 11.0026 6.17944C11.8409 5.03696 12.2778 4.40074 12.5334 4.03288Z" fill="#2D3646"/>
</svg>
