<svg width="64" height="56" viewBox="0 0 64 56" fill="none" xmlns="http://www.w3.org/2000/svg">
<path fill-rule="evenodd" clip-rule="evenodd" d="M33.0749 6.45464L15.0397 34.0648C12.8099 35.1195 10.3622 36.1437 7.68286 37.1351L31.3098 0.964425C31.6164 0.495018 32.0634 0.198592 32.5474 0.0751465C33.1887 1.70313 33.706 3.3191 34.0778 4.91934L33.0749 6.45464ZM32.5474 0.0751465C32.6583 0.046871 32.7711 0.0276707 32.8846 0.017546C32.7606 0.0301644 32.648 0.0494812 32.5474 0.0751465ZM7.2959 37.7275C7.42473 37.5376 7.55339 37.3403 7.68286 37.1351L7.2959 37.7275Z" fill="white"/>
<path d="M13.3086 43.8554L15.417 47.545C17.5237 46.5455 19.8872 45.3106 22.3242 43.8554C23.296 43.2752 24.2794 42.6599 25.2629 42.0106L21.4785 39.8154C18.9707 41.2531 16.2419 42.6017 13.3086 43.8554Z" fill="white"/>
<path d="M25.7465 37.1351L29.2531 39.1699C32.6922 36.5237 35.93 33.4589 38.4362 30.0193L34.8401 28.8459C32.4836 31.825 29.4277 34.5963 25.7465 37.1351Z" fill="white"/>
<path d="M36.462 26.5932L40.3138 27.1203C41.374 25.253 42.2037 23.2901 42.7313 21.2378C42.9788 20.2752 43.1598 19.2929 43.267 18.2915H39.9799C39.3592 21.195 38.1713 23.9674 36.462 26.5932Z" fill="white"/>
<path d="M40.3948 15.5243H43.371C43.3534 14.9664 43.3124 14.4032 43.247 13.8347C43.0205 11.8683 42.2986 8.93531 41.1126 7.74974H39.7949C39.8879 8.14599 39.9714 8.54049 40.0453 8.93321C40.4704 11.1911 40.5813 13.39 40.3948 15.5243Z" fill="white"/>
<path d="M18.9749 52.5524L22.0056 55.4514C26.0593 53.6182 29.9507 51.1779 33.4887 48.3357C35.2359 46.932 36.897 45.4304 38.4488 43.8554C42.709 39.5319 46.1461 34.6559 48.2843 29.7388C49.0714 27.9284 49.6826 26.1125 50.0938 24.3165C51.5396 18.0024 50.5153 11.9349 45.9882 7.22271C40.5795 1.59289 35.0327 -0.201192 32.8846 0.017546C33.6201 -0.0480761 34.3848 0.26755 34.8401 0.964425L39.136 5.24606L37.6865 1.95175C44.1434 7.22271 46.6575 13.416 46.6575 19.0558C46.6618 21.231 46.3028 23.4259 45.5963 25.6238C43.6113 31.8 38.8834 38.0001 31.7704 43.8554C29.9253 45.3742 27.9198 46.8697 25.7601 48.3357C23.6444 49.7717 21.3807 51.1793 18.9749 52.5524Z" fill="white"/>
<path d="M32.5478 0.0753492C33.189 1.70333 33.7063 3.3193 34.0781 4.91955C34.3919 6.27014 34.6021 7.60953 34.6957 8.93552C35.3511 18.2245 30.2845 26.8553 15.0401 34.0651C12.8102 35.1197 10.3626 36.1439 7.68324 37.1353C7.55377 37.3405 7.42511 37.5378 7.29628 37.7277C5.61854 40.2006 3.91144 41.4277 0 42.9333C1.38189 42.8792 2.76332 42.7546 4.13716 42.564C6.23421 42.273 8.31356 41.8281 10.3498 41.2455C24.6642 37.1495 36.8483 26.2439 38.0761 14.1107C38.5123 9.80016 37.5657 5.33472 34.8404 0.964628C34.3852 0.267753 33.6205 -0.0478734 32.8849 0.0177487C32.761 0.0303672 32.6484 0.049684 32.5478 0.0753492Z" fill="#51C371"/>
<path fill-rule="evenodd" clip-rule="evenodd" d="M32.8849 0.0177487C32.761 0.0303672 32.6484 0.049684 32.5478 0.0753492C32.6586 0.0470737 32.7715 0.0278734 32.8849 0.0177487ZM7.29628 37.7277C7.42511 37.5378 7.55377 37.3405 7.68324 37.1353L7.29628 37.7277Z" fill="#51C371"/>
<path d="M61.8881 48.3359C63.5631 48.3359 64.5693 46.4768 63.6533 45.0745L50.0942 24.3167C49.6829 26.1127 49.0718 27.9286 48.2846 29.739L57.5057 43.8556H38.4492C36.8974 45.4306 35.2363 46.9322 33.489 48.3359H61.8881Z" fill="#51C371"/>
</svg>
