<svg width="12" height="7" viewBox="0 0 12 7" fill="none" xmlns="http://www.w3.org/2000/svg">
<path d="M8.69079 0.916016C8.61417 0.916034 8.5393 0.938912 8.47576 0.981722C8.41221 1.02453 8.36288 1.08533 8.33408 1.15633C8.30528 1.22733 8.29832 1.30531 8.31409 1.38029C8.32986 1.45527 8.36764 1.52384 8.4226 1.57723L10.3321 3.48669H0.73814C0.687122 3.48597 0.636471 3.4954 0.589128 3.51442C0.541785 3.53344 0.498696 3.56169 0.462363 3.59751C0.426031 3.63333 0.397181 3.67602 0.377489 3.72309C0.357797 3.77016 0.347656 3.82067 0.347656 3.87169C0.347656 3.92271 0.357797 3.97323 0.377489 4.0203C0.397181 4.06737 0.426031 4.11005 0.462363 4.14587C0.498696 4.18169 0.541785 4.20994 0.589128 4.22896C0.636471 4.24799 0.687122 4.25741 0.73814 4.25669H10.3321L8.4226 6.16615C8.38565 6.20163 8.35615 6.24412 8.33583 6.29114C8.31551 6.33816 8.30477 6.38876 8.30425 6.43998C8.30373 6.4912 8.31344 6.54201 8.3328 6.58943C8.35216 6.63685 8.38079 6.67994 8.41701 6.71616C8.45323 6.75238 8.49631 6.781 8.54373 6.80037C8.59116 6.81973 8.64196 6.82943 8.69318 6.82891C8.7444 6.82839 8.795 6.81766 8.84202 6.79733C8.88904 6.77701 8.93154 6.74751 8.96701 6.71056L11.5337 4.1439C11.6059 4.07169 11.6464 3.97378 11.6464 3.87169C11.6464 3.7696 11.6059 3.67169 11.5337 3.59948L8.96701 1.03282C8.93113 0.995863 8.88819 0.966483 8.84074 0.94642C8.7933 0.926356 8.74231 0.916018 8.69079 0.916016Z" fill="#2D3646"/>
</svg>
