<svg width="64" height="30" viewBox="0 0 64 30" fill="none" xmlns="http://www.w3.org/2000/svg">
<g clip-path="url(#clip0_101_1116)">
<path d="M31.0918 16.7325H32.0691V18.9228H32.7752L34.0422 16.7325H35.1106L33.5898 19.3031V19.3211L35.2012 22.1264H34.0968L32.7932 19.7729H32.0876V22.1264H31.1098V16.7319H31.0918V16.7325ZM37.3915 18.1627C38.5674 18.1627 39.5272 19.0134 39.5272 20.1898C39.5272 21.3848 38.586 22.2175 37.4095 22.2175C36.2325 22.2175 35.2912 21.3848 35.2912 20.1898C35.2732 18.9954 36.2145 18.1627 37.3915 18.1627ZM40.2873 18.2527H41.2106V21.2943H42.4236V18.2533H43.3463V21.2943H44.5593V18.2533H45.4826V22.1264H40.3233V18.2527H40.2873ZM48.2164 18.1627C49.3203 18.1627 49.9358 18.9774 49.9358 19.9912C49.9327 20.1185 49.9207 20.2454 49.8998 20.371H47.2385C47.2931 21.0405 47.8181 21.4028 48.3976 21.4028C48.7953 21.4028 49.1937 21.2217 49.5014 20.9865L49.8818 21.6746C49.4834 22.0178 48.8859 22.2355 48.325 22.2355C47.0394 22.2355 46.2433 21.3123 46.2433 20.2078C46.2433 18.9954 47.0574 18.1627 48.2164 18.1627ZM50.3881 21.3123C50.859 21.2397 51.2028 20.8419 51.2028 19.4657V18.2533H54.0272V22.1264H53.0673V19.0308H52.1261V19.4652C52.1261 21.1485 51.6737 22.1264 50.3881 22.1624V21.3117V21.3123ZM56.7784 18.1627C57.8823 18.1627 58.4978 18.9774 58.4978 19.9912C58.4947 20.1185 58.4827 20.2454 58.4618 20.371H55.8006C55.8551 21.0405 56.3801 21.4028 56.9596 21.4028C57.3573 21.4028 57.7557 21.2217 58.0634 20.9865L58.4438 21.6746C58.0454 22.0178 57.4479 22.2355 56.887 22.2355C55.602 22.2355 54.8053 21.3123 54.8053 20.2078C54.8053 18.9954 55.62 18.1627 56.7784 18.1627ZM59.2945 18.2527H60.2537V19.7375H60.7246L61.6659 18.2533H62.7338L61.5028 20.0992V20.1178L62.8784 22.1264H61.7565L60.7427 20.5522H60.2363V22.1264H59.2759V18.2527H59.2939H59.2945ZM37.3915 21.3848C38.025 21.3848 38.5499 20.8959 38.5499 20.1718C38.5499 19.4657 38.025 18.9588 37.3909 18.9588C36.758 18.9588 36.2511 19.4483 36.2511 20.1718C36.2511 20.8959 36.7574 21.3848 37.3915 21.3848ZM48.9585 19.7015C48.9585 19.1945 48.6142 18.8868 48.1798 18.8868C47.6915 18.8868 47.3291 19.2125 47.2385 19.7015H48.9585ZM57.5205 19.7015C57.5205 19.1945 57.1767 18.8868 56.7424 18.8868C56.2529 18.8868 55.8911 19.2125 55.8006 19.7015H57.5205Z" fill="white"/>
<path d="M44.6144 4.98427V14.1258C44.6151 14.1592 44.6091 14.1925 44.5966 14.2236C44.5842 14.2546 44.5656 14.2829 44.5419 14.3065C44.5182 14.3302 44.49 14.3488 44.459 14.3613C44.4279 14.3737 44.3946 14.3797 44.3612 14.379H42.4966C42.4632 14.3797 42.4299 14.3737 42.3988 14.3613C42.3678 14.3488 42.3396 14.3302 42.3159 14.3065C42.2922 14.2829 42.2736 14.2546 42.2612 14.2236C42.2487 14.1925 42.2427 14.1592 42.2435 14.1258V4.98427C42.2427 4.95081 42.2487 4.91754 42.2612 4.88648C42.2736 4.85541 42.2922 4.8272 42.3159 4.80353C42.3396 4.77987 42.3678 4.76124 42.3988 4.74879C42.4299 4.73634 42.4632 4.73032 42.4966 4.73109H44.3612C44.3946 4.73032 44.4279 4.73634 44.459 4.74879C44.49 4.76124 44.5182 4.77987 44.5419 4.80353C44.5656 4.8272 44.5842 4.85541 44.5966 4.88648C44.6091 4.91754 44.6151 4.95081 44.6144 4.98427ZM59.1683 4.73109C59.2409 4.73109 59.3315 4.7671 59.4215 4.83968C59.4761 4.89369 59.4761 4.98427 59.4581 5.05685L56.3805 14.2164C56.3618 14.2638 56.3295 14.3046 56.2877 14.3336C56.2458 14.3626 56.1963 14.3786 56.1453 14.3795H54.48C54.3714 14.3795 54.2808 14.325 54.2448 14.2164L52.4517 8.8765L50.6597 14.2158C50.6411 14.2632 50.6088 14.304 50.5669 14.333C50.525 14.3621 50.4755 14.3781 50.4246 14.379H48.7592C48.6506 14.379 48.56 14.325 48.524 14.2158L45.4465 5.05629C45.4285 4.98427 45.4285 4.91169 45.4825 4.83968C45.5191 4.7671 45.6096 4.73109 45.6817 4.73109H47.7634C47.8719 4.73109 47.9625 4.80311 47.9991 4.91169L49.6459 10.3241L51.4564 4.91169C51.4751 4.86429 51.5074 4.82349 51.5493 4.79445C51.5911 4.76541 51.6407 4.74943 51.6916 4.74853H53.1578C53.2664 4.74853 53.357 4.80311 53.393 4.91169L55.2035 10.3241L56.8509 4.91169C56.8656 4.86042 56.8964 4.81522 56.9388 4.78272C56.9811 4.75022 57.0327 4.73213 57.086 4.73109H59.1678H59.1683ZM62.3179 4.73109C62.4445 4.73109 62.5531 4.83968 62.5711 4.98427V14.1258C62.5718 14.1592 62.5658 14.1925 62.5534 14.2236C62.5409 14.2546 62.5223 14.2829 62.4986 14.3065C62.475 14.3302 62.4467 14.3488 62.4157 14.3613C62.3846 14.3737 62.3513 14.3797 62.3179 14.379H60.4534C60.4199 14.3797 60.3866 14.3737 60.3556 14.3613C60.3245 14.3488 60.2963 14.3302 60.2726 14.3065C60.2489 14.2829 60.2303 14.2546 60.2179 14.2236C60.2054 14.1925 60.1994 14.1592 60.2002 14.1258V4.98427C60.1994 4.95081 60.2054 4.91754 60.2179 4.88648C60.2303 4.85541 60.2489 4.8272 60.2726 4.80353C60.2963 4.77987 60.3245 4.76124 60.3556 4.74879C60.3866 4.73634 60.4199 4.73032 60.4534 4.73109H62.3179ZM41.157 14.0538C41.2656 14.1804 41.175 14.361 41.0119 14.361H38.731C38.6861 14.3622 38.6415 14.353 38.6007 14.3342C38.5599 14.3153 38.524 14.2874 38.4958 14.2524L38.116 13.782C37.3194 14.2884 36.3775 14.5967 35.3822 14.5967C32.595 14.5967 30.3321 12.3338 30.3321 9.54603C30.3321 6.75822 32.595 4.49535 35.3822 4.49535C38.1701 4.49535 40.4329 6.75822 40.4329 9.54603C40.4329 10.5419 40.1432 11.4831 39.6363 12.2793L41.157 14.0532V14.0538ZM22.0953 18.4884C22.5662 18.6695 22.7474 19.3751 22.7834 19.6828C22.856 20.2443 22.6934 20.4615 22.5122 20.4615C22.3311 20.4615 22.0773 20.2443 21.8061 19.81C21.5344 19.3751 21.4258 18.8867 21.571 18.633C21.661 18.4698 21.8601 18.3978 22.0959 18.4884H22.0953ZM19.3441 20.5341C19.6338 20.5341 19.9596 20.6607 20.2493 20.9138C20.8103 21.3848 20.9734 21.9277 20.6837 22.326C20.5205 22.5252 20.2493 22.6518 19.9416 22.6518C19.6338 22.6518 19.3081 22.5432 19.0909 22.344C18.584 21.9097 18.4394 21.185 18.7646 20.7873C18.8917 20.6241 19.0909 20.5341 19.3441 20.5341ZM13.0089 25.7654C6.12973 25.7654 0.554688 20.1898 0.554688 13.3111C0.554688 6.43247 6.13029 0.857422 13.0084 0.857422C19.887 0.857422 25.4626 6.43303 25.4626 13.3111C25.4626 15.646 24.8111 17.8369 23.7072 19.7014C23.6707 19.7554 23.5801 19.7374 23.5621 19.6648C23.1277 16.6058 21.2632 14.9219 18.548 14.4155C18.3122 14.379 18.2762 14.2344 18.584 14.1984C19.4167 14.1258 20.5931 14.1438 21.2086 14.2524C21.2446 13.9446 21.2632 13.6189 21.2632 13.2931C21.2632 8.74935 17.5701 5.05629 13.0264 5.05629C8.48319 5.05629 4.79012 8.74935 4.79012 13.2931C4.79012 17.8369 8.48319 21.5299 13.0269 21.5299H13.4067C13.2777 20.795 13.223 20.0489 13.2436 19.3031C13.2621 18.7961 13.3707 18.7236 13.5879 19.1219C14.7283 21.095 16.3577 22.869 19.5433 23.5751C22.1499 24.1546 24.7565 24.8241 27.5623 28.39C27.8155 28.6978 27.4357 29.0235 27.146 28.7703C24.2862 26.2357 21.6795 25.403 19.3081 25.403C16.6469 25.4216 14.8369 25.7654 13.0084 25.7654H13.0089ZM36.6313 12.0261L35.6354 10.8131C35.5274 10.6865 35.618 10.4873 35.7806 10.4873H37.8803C37.9889 10.1975 38.0435 9.87179 38.0435 9.54603C38.0435 8.04382 36.921 6.74022 35.3822 6.74022C33.844 6.74022 32.721 8.04382 32.721 9.54603C32.721 11.0482 33.844 12.3338 35.3822 12.3338C35.8166 12.3518 36.2515 12.2252 36.6313 12.0261Z" fill="#FF8C00"/>
</g>
<defs>
<clipPath id="clip0_101_1116">
<rect width="62.8868" height="28.5662" fill="white" transform="translate(0.273438 0.576172)"/>
</clipPath>
</defs>
</svg>
