<svg width="52" height="18" viewBox="0 0 52 18" fill="none" xmlns="http://www.w3.org/2000/svg">
<g clip-path="url(#clip0_101_1083)">
<path d="M22.5592 17.1384H18.3662L20.9888 0.799316H25.1816L22.5592 17.1384Z" fill="#35A4FF"/>
<path d="M37.7586 1.19855C36.9316 0.86795 35.6198 0.50293 33.9978 0.50293C29.8571 0.50293 26.9412 2.72771 26.9233 5.90847C26.8889 8.25522 29.011 9.55867 30.5981 10.3412C32.2204 11.1407 32.7718 11.6626 32.7718 12.3753C32.7553 13.4699 31.4609 13.9745 30.2537 13.9745C28.5797 13.9745 27.6827 13.7144 26.3196 13.1054L25.7674 12.8443L25.1807 16.5121C26.1641 16.9635 27.9759 17.3641 29.8571 17.3817C34.2567 17.3817 37.121 15.1913 37.1549 11.8017C37.1717 9.94171 36.0511 8.51651 33.6353 7.35191C32.1688 6.60432 31.2706 6.10022 31.2706 5.33529C31.2878 4.63991 32.0303 3.92765 33.6858 3.92765C35.0489 3.89277 36.0504 4.2229 36.8092 4.55327L37.1884 4.72677L37.7586 1.19855Z" fill="#35A4FF"/>
<path d="M43.332 11.35C43.6774 10.4114 45.0061 6.77849 45.0061 6.77849C44.9887 6.81337 45.3507 5.82251 45.5578 5.21422L45.8508 6.62209C45.8508 6.62209 46.6448 10.5331 46.8173 11.35C46.162 11.35 44.1602 11.35 43.332 11.35ZM48.5078 0.799316H45.2645C44.2643 0.799316 43.5045 1.09457 43.0729 2.15497L36.8447 17.1381H41.2444C41.2444 17.1381 41.9687 15.1215 42.1244 14.6872C42.607 14.6872 46.887 14.6872 47.5079 14.6872C47.6283 15.2608 48.0082 17.1381 48.0082 17.1381H51.8905L48.5078 0.799316Z" fill="#35A4FF"/>
<path d="M14.864 0.799316L10.7576 11.941L10.3089 9.68133C9.54969 7.07397 7.16874 4.24114 4.51172 2.83257L8.273 17.121H12.707L19.2978 0.799316H14.864Z" fill="#35A4FF"/>
<path d="M6.94411 0.799316H0.197922L0.128906 1.12945C5.39136 2.48534 8.87657 5.75366 10.3085 9.68202L8.84195 2.17276C8.60051 1.12922 7.85852 0.833739 6.94411 0.799316Z" fill="#FFAE27"/>
</g>
<defs>
<clipPath id="clip0_101_1083">
<rect width="51.7614" height="16.8787" fill="white" transform="translate(0.128906 0.50293)"/>
</clipPath>
</defs>
</svg>
