<svg width="22" height="22" viewBox="0 0 22 22" fill="none" xmlns="http://www.w3.org/2000/svg">
<path d="M20.9742 16.1343C20.1506 14.6521 18.029 12.871 17.1531 12.0959C16.9134 11.8837 16.8877 11.5166 17.1059 11.2819C18.7774 9.48572 20.1144 7.42185 20.5746 6.17472C20.7776 5.62381 20.3573 5.04172 19.7652 5.04172H18.045C17.4781 5.04172 17.1462 5.24522 16.9881 5.56926C15.5989 8.41597 14.4072 9.64797 13.5731 10.368C13.106 10.7713 12.3777 10.4372 12.3777 9.82351C12.3777 8.64101 12.3777 7.11247 12.3777 6.02851C12.3777 5.50281 11.9478 5.07747 11.4175 5.07747L8.27519 5.04172C7.87965 5.04172 7.65369 5.48951 7.89111 5.80347L8.40994 6.54826C8.60519 6.80631 8.71061 7.12026 8.71061 7.44247L8.70786 10.7966C8.70786 11.38 8.00065 11.6651 7.58081 11.2563C6.16044 9.87301 4.92798 7.04831 4.48431 5.6976C4.35598 5.30664 3.98977 5.04264 3.57452 5.04172L1.88006 5.0376C1.24435 5.0376 0.779605 5.64031 0.952396 6.24714C2.50065 11.6816 5.67736 16.8516 11.3387 17.4121C11.8965 17.4671 12.3777 17.018 12.3777 16.462V14.6993C12.3777 14.1937 12.7742 13.7592 13.2839 13.7464C13.3017 13.7459 13.3196 13.7459 13.3375 13.7459C14.8349 13.7459 16.5119 15.9253 17.0986 16.9446C17.2672 17.238 17.5826 17.4167 17.9236 17.4167H20.2029C20.8679 17.4167 21.2946 16.7113 20.9742 16.1343Z" fill="#000106"/>
</svg>
