<svg width="22" height="22" viewBox="0 0 22 22" fill="none" xmlns="http://www.w3.org/2000/svg">
<path d="M20.5342 5.08724C19.8324 5.39891 19.0785 5.60864 18.2873 5.70324C19.0954 5.21924 19.7151 4.45291 20.0069 3.53917C19.2516 3.98724 18.4141 4.31284 17.5224 4.48884C16.8089 3.72837 15.7925 3.25317 14.6675 3.25317C12.5071 3.25317 10.7559 5.00511 10.7559 7.16477C10.7559 7.47131 10.7911 7.77051 10.8571 8.05577C7.60626 7.89297 4.72426 6.33537 2.79413 3.96817C2.45826 4.54604 2.2654 5.21777 2.2654 5.93571C2.2654 7.29237 2.95546 8.48991 4.00486 9.19097C3.36393 9.17044 2.7604 8.99444 2.23313 8.70184C2.23313 8.71871 2.23313 8.73411 2.23313 8.75097C2.23313 10.6466 3.581 12.2277 5.37106 12.5863C5.04326 12.6758 4.69713 12.7234 4.34 12.7234C4.08846 12.7234 3.8428 12.6985 3.60446 12.6538C4.1024 14.2077 5.54706 15.3392 7.25866 15.3708C5.92033 16.4202 4.23366 17.0457 2.40033 17.0457C2.085 17.0457 1.77333 17.0274 1.4668 16.9907C3.1982 18.1002 5.25373 18.7478 7.46326 18.7478C14.6587 18.7478 18.5923 12.7872 18.5923 7.61797C18.5923 7.44857 18.5887 7.27991 18.5813 7.11197C19.3462 6.55977 20.0099 5.87117 20.5342 5.08724Z" fill="#000106"/>
</svg>
