<svg width="32" height="32" viewBox="0 0 32 32" fill="none" xmlns="http://www.w3.org/2000/svg">
<path d="M29.3346 16.0001C29.3346 23.3634 23.3646 29.3334 16.0013 29.3334C8.63797 29.3334 2.66797 23.3634 2.66797 16.0001C2.66797 8.63675 8.63797 2.66675 16.0013 2.66675C23.3646 2.66675 29.3346 8.63675 29.3346 16.0001Z" fill="url(#paint0_linear_1003_47)"/>
<path opacity="0.05" d="M6.74676 15.644C12.1834 13.1807 18.5688 10.508 19.5521 10.1213C21.7201 9.26866 22.6654 10.14 22.5174 11.53C22.3354 13.2333 21.4728 18.19 20.9421 21.7413C20.6314 23.8193 19.5061 24.456 18.2361 23.65C17.2728 23.0387 13.9608 20.87 13.0894 20.1287C12.4954 19.6233 12.0814 19.0567 12.5028 18.4793C12.6261 18.3107 12.9414 17.9707 13.1168 17.8013C13.9961 16.9493 13.8774 16.766 12.8141 17.5267C12.6874 17.6173 11.9528 18.15 11.6508 18.3513C10.9108 18.8447 10.2301 18.8713 9.07609 18.4793C8.13209 18.1587 7.22543 17.9113 6.65343 17.664C5.86343 17.322 5.56076 16.1813 6.74676 15.644Z" fill="black"/>
<path opacity="0.07" d="M7.22594 15.7273C12.2739 13.4707 18.4819 10.8847 19.3899 10.5187C21.5659 9.64001 22.3666 10.1613 22.1326 11.8593C21.9153 13.4313 21.1439 18.2953 20.6033 21.556C20.2846 23.4753 19.3539 23.898 18.1419 23.114C17.3826 22.6247 14.3266 20.6113 13.5853 20.0253C13.0119 19.5727 12.4179 19.05 13.1119 18.2933C13.3439 18.0407 14.6253 16.804 15.5833 15.884C16.1386 15.35 15.9406 15.0867 15.2706 15.5453C14.0419 16.3873 12.0319 17.72 11.6733 17.962C10.9899 18.422 10.3479 18.5327 9.23061 18.1813C8.34994 17.904 7.49927 17.6353 7.05594 17.4627C6.06527 17.0787 6.05194 16.252 7.22594 15.7273Z" fill="black"/>
<path d="M7.70005 15.8114C12.3601 13.7614 18.3901 11.2621 19.2227 10.9161C21.4061 10.0108 22.0761 10.1841 21.7421 12.1894C21.5021 13.6308 20.8101 18.4021 20.2581 21.3721C19.9307 23.1334 19.1961 23.3421 18.0414 22.5801C17.4861 22.2134 14.6827 20.3594 14.0741 19.9241C13.5187 19.5274 12.7527 19.0501 13.7134 18.1101C14.0554 17.7754 16.2961 15.6354 18.0421 13.9701C18.2707 13.7514 17.9834 13.3921 17.7194 13.5674C15.3661 15.1281 12.1034 17.2941 11.6881 17.5761C11.0607 18.0021 10.4581 18.1974 9.37672 17.8868C8.55939 17.6521 7.76139 17.3721 7.45072 17.2654C6.25405 16.8548 6.53805 16.3228 7.70005 15.8114Z" fill="white"/>
<defs>
<linearGradient id="paint0_linear_1003_47" x1="6.5733" y1="6.57208" x2="25.4293" y2="25.4281" gradientUnits="userSpaceOnUse">
<stop stop-color="#33BEF0"/>
<stop offset="1" stop-color="#0A85D9"/>
</linearGradient>
</defs>
</svg>
