<svg width="22" height="22" viewBox="0 0 22 22" fill="none" xmlns="http://www.w3.org/2000/svg">
<path d="M1.60452 2.75007C1.51342 2.74878 1.42297 2.76561 1.33843 2.79958C1.25389 2.83356 1.17694 2.88399 1.11206 2.94796C1.04718 3.01193 0.995663 3.08815 0.960499 3.1722C0.925335 3.25626 0.907227 3.34646 0.907227 3.43757C0.907227 3.52868 0.925335 3.61888 0.960499 3.70293C0.995663 3.78699 1.04718 3.86321 1.11206 3.92718C1.17694 3.99115 1.25389 4.04158 1.33843 4.07555C1.42297 4.10953 1.51342 4.12636 1.60452 4.12507H2.86762C3.20126 4.12507 3.47937 4.35558 3.54259 4.68366L3.67955 5.39981L5.1575 13.1619C5.42476 14.5624 6.65862 15.5834 8.08474 15.5834H16.666C18.0921 15.5834 19.3265 14.5628 19.5932 13.1619L21.0712 5.39981C21.0901 5.30042 21.0869 5.19808 21.0618 5.10008C21.0366 5.00208 20.9901 4.91084 20.9257 4.83286C20.8612 4.75488 20.7803 4.6921 20.6888 4.64897C20.5973 4.60585 20.4974 4.58346 20.3962 4.5834H4.92296L4.89342 4.42674C4.70865 3.45844 3.85355 2.75007 2.86762 2.75007H1.60452ZM5.18525 5.9584H19.5655L18.2424 12.905C18.0975 13.6657 17.4408 14.2084 16.666 14.2084H8.08474C7.31022 14.2084 6.65388 13.6656 6.50833 12.905V12.9041L5.18525 5.9584ZM9.16702 16.5001C8.80235 16.5001 8.45261 16.6449 8.19475 16.9028C7.93688 17.1607 7.79202 17.5104 7.79202 17.8751C7.79202 18.2397 7.93688 18.5895 8.19475 18.8473C8.45261 19.1052 8.80235 19.2501 9.16702 19.2501C9.53169 19.2501 9.88143 19.1052 10.1393 18.8473C10.3972 18.5895 10.542 18.2397 10.542 17.8751C10.542 17.5104 10.3972 17.1607 10.1393 16.9028C9.88143 16.6449 9.53169 16.5001 9.16702 16.5001ZM15.5837 16.5001C15.219 16.5001 14.8693 16.6449 14.6114 16.9028C14.3535 17.1607 14.2087 17.5104 14.2087 17.8751C14.2087 18.2397 14.3535 18.5895 14.6114 18.8473C14.8693 19.1052 15.219 19.2501 15.5837 19.2501C15.9484 19.2501 16.2981 19.1052 16.556 18.8473C16.8138 18.5895 16.9587 18.2397 16.9587 17.8751C16.9587 17.5104 16.8138 17.1607 16.556 16.9028C16.2981 16.6449 15.9484 16.5001 15.5837 16.5001Z" fill="white"/>
</svg>
