<svg width="14" height="18" viewBox="0 0 14 18" fill="none" xmlns="http://www.w3.org/2000/svg">
<path d="M7.00065 0.666992C4.70687 0.666992 2.83398 2.53988 2.83398 4.83366C2.83398 7.12744 4.70687 9.00033 7.00065 9.00033C9.29443 9.00033 11.1673 7.12744 11.1673 4.83366C11.1673 2.53988 9.29443 0.666992 7.00065 0.666992ZM7.00065 1.91699C8.61888 1.91699 9.91732 3.21543 9.91732 4.83366C9.91732 6.45189 8.61888 7.75033 7.00065 7.75033C5.38241 7.75033 4.08398 6.45189 4.08398 4.83366C4.08398 3.21543 5.38241 1.91699 7.00065 1.91699ZM2.20898 10.667C1.18086 10.667 0.333984 11.5139 0.333984 12.542V13.0417C0.333984 14.267 1.11095 15.3662 2.29606 16.1219C3.48117 16.8777 5.10267 17.3337 7.00065 17.3337C8.89863 17.3337 10.5201 16.8777 11.7052 16.1219C12.8904 15.3662 13.6673 14.267 13.6673 13.0417V12.542C13.6673 11.5139 12.8204 10.667 11.7923 10.667H2.20898ZM2.20898 11.917H11.7923C12.145 11.917 12.4173 12.1893 12.4173 12.542V13.0417C12.4173 13.7355 11.9704 14.4703 11.033 15.068C10.0957 15.6658 8.696 16.0837 7.00065 16.0837C5.3053 16.0837 3.90565 15.6658 2.96826 15.068C2.03087 14.4703 1.58398 13.7355 1.58398 13.0417V12.542C1.58398 12.1893 1.85628 11.917 2.20898 11.917Z" fill="#2D3646"/>
</svg>
