<svg width="16" height="16" viewBox="0 0 16 16" fill="none" xmlns="http://www.w3.org/2000/svg">
<path d="M7.99947 0.336182C7.92987 0.336182 7.86054 0.358257 7.80134 0.403057L0.441344 6.14743C0.303744 6.25623 0.278169 6.45726 0.386969 6.59806C0.495769 6.73566 0.696794 6.76123 0.837594 6.65243L1.27947 6.30743V14.7199C1.27947 14.8959 1.42347 15.0399 1.59947 15.0399H6.07947V9.27993H9.91947V15.0399H14.3995C14.5755 15.0399 14.7195 14.8959 14.7195 14.7199V6.30743L15.1613 6.65243C15.2221 6.69723 15.2891 6.71993 15.3595 6.71993C15.4555 6.71993 15.548 6.67806 15.612 6.59806C15.7208 6.45726 15.6952 6.25623 15.5576 6.14743L8.19759 0.403057C8.13839 0.358257 8.06907 0.336182 7.99947 0.336182ZM11.1995 1.59993V1.93618L13.1195 3.43368V1.59993H11.1995Z" fill="#25B757"/>
</svg>
