<svg width="26" height="26" viewBox="0 0 26 26" fill="none" xmlns="http://www.w3.org/2000/svg">
<path d="M12.9997 2.16675C8.82096 2.16675 5.41634 5.57137 5.41634 9.75008C5.41634 11.6263 6.10567 13.3487 7.236 14.6716V14.6727H7.23706C7.23706 14.6727 10.3721 18.3445 11.5365 19.4556C12.3486 20.2304 13.6494 20.23 14.4618 19.4556C15.7779 18.2006 18.7612 14.6741 18.7633 14.6716L18.7644 14.6695C19.8944 13.3467 20.583 11.6254 20.583 9.75008C20.583 5.57137 17.1784 2.16675 12.9997 2.16675ZM12.9997 3.79175C16.3003 3.79175 18.958 6.44946 18.958 9.75008C18.958 11.2301 18.4193 12.5728 17.5277 13.6158V13.6169H17.5266C17.5266 13.6169 14.4254 17.2445 13.3403 18.2792C13.1397 18.4706 12.8586 18.4706 12.658 18.2792C11.7622 17.4245 8.47302 13.6186 8.47062 13.6158L8.46956 13.6137C7.57936 12.5709 7.04134 11.2292 7.04134 9.75008C7.04134 6.44946 9.69905 3.79175 12.9997 3.79175ZM12.9997 6.50008C11.984 6.50008 11.1194 6.91019 10.5643 7.53475C10.0091 8.1593 9.74967 8.96015 9.74967 9.75008C9.74967 10.54 10.0091 11.3409 10.5643 11.9654C11.1194 12.59 11.984 13.0001 12.9997 13.0001C14.0153 13.0001 14.8799 12.59 15.4351 11.9654C15.9902 11.3409 16.2497 10.54 16.2497 9.75008C16.2497 8.96015 15.9902 8.1593 15.4351 7.53475C14.8799 6.91019 14.0153 6.50008 12.9997 6.50008ZM12.9997 8.12508C13.609 8.12508 13.9632 8.32434 14.2205 8.61385C14.4779 8.90336 14.6247 9.32126 14.6247 9.75008C14.6247 10.1789 14.4779 10.5968 14.2205 10.8863C13.9632 11.1758 13.609 11.3751 12.9997 11.3751C12.3903 11.3751 12.0361 11.1758 11.7788 10.8863C11.5215 10.5968 11.3747 10.1789 11.3747 9.75008C11.3747 9.32126 11.5215 8.90336 11.7788 8.61385C12.0361 8.32434 12.3903 8.12508 12.9997 8.12508ZM6.91756 15.9475C4.45569 16.6587 2.70801 17.8496 2.70801 19.5001C2.70801 22.3449 7.88526 23.8334 12.9997 23.8334C18.1141 23.8334 23.2913 22.3449 23.2913 19.5001C23.2913 17.8502 21.5447 16.6603 19.0839 15.9486C18.7708 16.3039 18.3422 16.7884 17.8704 17.3144C20.2679 17.8782 21.6663 18.791 21.6663 19.5001C21.6663 20.6045 18.2901 22.2084 12.9997 22.2084C7.70922 22.2084 4.33301 20.6045 4.33301 19.5001C4.33301 18.7905 5.73405 17.8761 8.13525 17.3123C7.66563 16.7895 7.2339 16.3045 6.91756 15.9475Z" fill="#25B757"/>
</svg>
