<svg width="26" height="26" viewBox="0 0 26 26" fill="none" xmlns="http://www.w3.org/2000/svg">
<path d="M4.0625 3.25C2.72594 3.25 1.625 4.35094 1.625 5.6875V19.2292C1.625 21.164 3.21103 22.75 5.14583 22.75H20.8542C22.789 22.75 24.375 21.164 24.375 19.2292V11.1042C24.375 9.7676 23.2741 8.66667 21.9375 8.66667H21.125V5.6875C21.125 4.35094 20.0241 3.25 18.6875 3.25H4.0625ZM4.0625 4.875H18.6875C19.146 4.875 19.5 5.22898 19.5 5.6875V9.34587C19.4857 9.43309 19.4857 9.52207 19.5 9.60929V18.6875C19.4985 18.7952 19.5184 18.9021 19.5585 19.002C19.5987 19.1019 19.6583 19.1928 19.7339 19.2695C19.8095 19.3462 19.8996 19.4071 19.9989 19.4486C20.0982 19.4902 20.2048 19.5116 20.3125 19.5116C20.4202 19.5116 20.5268 19.4902 20.6261 19.4486C20.7254 19.4071 20.8155 19.3462 20.8911 19.2695C20.9667 19.1928 21.0263 19.1019 21.0665 19.002C21.1066 18.9021 21.1265 18.7952 21.125 18.6875V10.2917H21.9375C22.396 10.2917 22.75 10.6456 22.75 11.1042V19.2292C22.75 20.2854 21.9105 21.125 20.8542 21.125H5.14583C4.08955 21.125 3.25 20.2854 3.25 19.2292V5.6875C3.25 5.22898 3.60398 4.875 4.0625 4.875ZM5.6875 8.125C5.57983 8.12348 5.47294 8.14337 5.37303 8.18352C5.27312 8.22367 5.18218 8.28327 5.1055 8.35887C5.02883 8.43447 4.96794 8.52455 4.92639 8.62389C4.88483 8.72322 4.86343 8.82982 4.86343 8.9375C4.86343 9.04518 4.88483 9.15178 4.92639 9.25111C4.96794 9.35045 5.02883 9.44053 5.1055 9.51613C5.18218 9.59173 5.27312 9.65133 5.37303 9.69148C5.47294 9.73163 5.57983 9.75152 5.6875 9.75H17.0625C17.1702 9.75152 17.2771 9.73163 17.377 9.69148C17.4769 9.65133 17.5678 9.59173 17.6445 9.51613C17.7212 9.44053 17.7821 9.35045 17.8236 9.25111C17.8652 9.15178 17.8866 9.04518 17.8866 8.9375C17.8866 8.82982 17.8652 8.72322 17.8236 8.62389C17.7821 8.52455 17.7212 8.43447 17.6445 8.35887C17.5678 8.28327 17.4769 8.22367 17.377 8.18352C17.2771 8.14337 17.1702 8.12348 17.0625 8.125H5.6875ZM5.6875 12.4583C5.47202 12.4584 5.26537 12.544 5.113 12.6963C4.96063 12.8487 4.87502 13.0554 4.875 13.2708V17.0625C4.87502 17.278 4.96063 17.4846 5.113 17.637C5.26537 17.7894 5.47202 17.875 5.6875 17.875H9.47917C9.69465 17.875 9.9013 17.7894 10.0537 17.637C10.206 17.4846 10.2916 17.278 10.2917 17.0625V13.2708C10.2916 13.0554 10.206 12.8487 10.0537 12.6963C9.9013 12.544 9.69465 12.4584 9.47917 12.4583H5.6875ZM12.7292 12.4583C12.6215 12.4568 12.5146 12.4767 12.4147 12.5169C12.3148 12.557 12.2238 12.6166 12.1472 12.6922C12.0705 12.7678 12.0096 12.8579 11.9681 12.9572C11.9265 13.0566 11.9051 13.1632 11.9051 13.2708C11.9051 13.3785 11.9265 13.4851 11.9681 13.5844C12.0096 13.6838 12.0705 13.7739 12.1472 13.8495C12.2238 13.9251 12.3148 13.9847 12.4147 14.0248C12.5146 14.065 12.6215 14.0849 12.7292 14.0833H17.0625C17.1702 14.0849 17.2771 14.065 17.377 14.0248C17.4769 13.9847 17.5678 13.9251 17.6445 13.8495C17.7212 13.7739 17.7821 13.6838 17.8236 13.5844C17.8652 13.4851 17.8866 13.3785 17.8866 13.2708C17.8866 13.1632 17.8652 13.0566 17.8236 12.9572C17.7821 12.8579 17.7212 12.7678 17.6445 12.6922C17.5678 12.6166 17.4769 12.557 17.377 12.5169C17.2771 12.4767 17.1702 12.4568 17.0625 12.4583H12.7292ZM6.5 14.0833H8.66667V16.25H6.5V14.0833ZM12.7292 16.25C12.6215 16.2485 12.5146 16.2684 12.4147 16.3085C12.3148 16.3487 12.2238 16.4083 12.1472 16.4839C12.0705 16.5595 12.0096 16.6496 11.9681 16.7489C11.9265 16.8482 11.9051 16.9548 11.9051 17.0625C11.9051 17.1702 11.9265 17.2768 11.9681 17.3761C12.0096 17.4754 12.0705 17.5655 12.1472 17.6411C12.2238 17.7167 12.3148 17.7763 12.4147 17.8165C12.5146 17.8566 12.6215 17.8765 12.7292 17.875H17.0625C17.1702 17.8765 17.2771 17.8566 17.377 17.8165C17.4769 17.7763 17.5678 17.7167 17.6445 17.6411C17.7212 17.5655 17.7821 17.4754 17.8236 17.3761C17.8652 17.2768 17.8866 17.1702 17.8866 17.0625C17.8866 16.9548 17.8652 16.8482 17.8236 16.7489C17.7821 16.6496 17.7212 16.5595 17.6445 16.4839C17.5678 16.4083 17.4769 16.3487 17.377 16.3085C17.2771 16.2684 17.1702 16.2485 17.0625 16.25H12.7292Z" fill="#25B757"/>
</svg>
