<svg width="26" height="26" viewBox="0 0 26 26" fill="none" xmlns="http://www.w3.org/2000/svg">
<path d="M1.89536 5.41659C1.7877 5.41506 1.6808 5.43495 1.58089 5.4751C1.48098 5.51525 1.39004 5.57486 1.31337 5.65046C1.23669 5.72605 1.1758 5.81614 1.13425 5.91547C1.09269 6.01481 1.07129 6.12141 1.07129 6.22909C1.07129 6.33676 1.09269 6.44336 1.13425 6.5427C1.1758 6.64203 1.23669 6.73212 1.31337 6.80772C1.39004 6.88331 1.48098 6.94292 1.58089 6.98307C1.6808 7.02322 1.7877 7.04311 1.89536 7.04159H10.0204C10.128 7.04311 10.2349 7.02322 10.3348 6.98307C10.4347 6.94292 10.5257 6.88331 10.6024 6.80772C10.679 6.73212 10.7399 6.64203 10.7815 6.5427C10.823 6.44336 10.8444 6.33676 10.8444 6.22909C10.8444 6.12141 10.823 6.01481 10.7815 5.91547C10.7399 5.81614 10.679 5.72605 10.6024 5.65046C10.5257 5.57486 10.4347 5.51525 10.3348 5.4751C10.2349 5.43495 10.128 5.41506 10.0204 5.41659H1.89536ZM13.2704 5.41659C13.1627 5.41506 13.0558 5.43495 12.9559 5.4751C12.856 5.51525 12.765 5.57486 12.6884 5.65046C12.6117 5.72605 12.5508 5.81614 12.5092 5.91547C12.4677 6.01481 12.4463 6.12141 12.4463 6.22909C12.4463 6.33676 12.4677 6.44336 12.5092 6.5427C12.5508 6.64203 12.6117 6.73212 12.6884 6.80772C12.765 6.88331 12.856 6.94292 12.9559 6.98307C13.0558 7.02322 13.1627 7.04311 13.2704 7.04159H14.8954C15.3539 7.04159 15.7079 7.39557 15.7079 7.85409V17.8749H9.63315C9.27598 16.6299 8.12438 15.7083 6.77036 15.7083C5.41634 15.7083 4.26474 16.6299 3.90757 17.8749H3.52036C3.06184 17.8749 2.70786 17.5209 2.70786 17.0624V15.9791C2.70942 15.8703 2.68913 15.7624 2.6482 15.6616C2.60727 15.5609 2.54653 15.4693 2.46958 15.3925C2.39262 15.3156 2.30102 15.255 2.20021 15.2142C2.09939 15.1734 1.99141 15.1532 1.88267 15.1549C1.66736 15.1583 1.4622 15.247 1.31223 15.4015C1.16227 15.556 1.07977 15.7638 1.08286 15.9791V17.0624C1.08286 18.399 2.1838 19.4999 3.52036 19.4999H3.90757C4.26474 20.7449 5.41634 21.6666 6.77036 21.6666C8.12438 21.6666 9.27598 20.7449 9.63315 19.4999H16.3659C16.7231 20.7449 17.8747 21.6666 19.2287 21.6666C20.5827 21.6666 21.7343 20.7449 22.0915 19.4999H22.4787C23.8153 19.4999 24.9162 18.399 24.9162 17.0624V13.6156C24.9162 13.2736 24.844 12.9377 24.7067 12.6275C24.7064 12.6272 24.706 12.6268 24.7057 12.6265L23.1082 9.03158V9.03052C22.7181 8.15218 21.8421 7.58325 20.8812 7.58325H17.3054C17.1673 6.37351 16.1393 5.41659 14.8954 5.41659H13.2704ZM1.89536 8.66659C1.7877 8.66506 1.6808 8.68495 1.58089 8.7251C1.48098 8.76525 1.39004 8.82486 1.31337 8.90046C1.23669 8.97605 1.1758 9.06614 1.13425 9.16547C1.09269 9.26481 1.07129 9.37141 1.07129 9.47909C1.07129 9.58676 1.09269 9.69337 1.13425 9.7927C1.1758 9.89203 1.23669 9.98212 1.31337 10.0577C1.39004 10.1333 1.48098 10.1929 1.58089 10.2331C1.6808 10.2732 1.7877 10.2931 1.89536 10.2916H7.85369C7.96136 10.2931 8.06825 10.2732 8.16817 10.2331C8.26808 10.1929 8.35901 10.1333 8.43569 10.0577C8.51236 9.98212 8.57325 9.89203 8.61481 9.7927C8.65636 9.69337 8.67777 9.58676 8.67777 9.47909C8.67777 9.37141 8.65636 9.26481 8.61481 9.16547C8.57325 9.06614 8.51236 8.97605 8.43569 8.90046C8.35901 8.82486 8.26808 8.76525 8.16817 8.7251C8.06825 8.68495 7.96136 8.66506 7.85369 8.66659H1.89536ZM17.3329 9.20825H20.8812C21.2048 9.20825 21.4917 9.39516 21.6228 9.69067L22.612 11.9166H17.3329V9.20825ZM1.89536 11.9166C1.7877 11.9151 1.6808 11.935 1.58089 11.9751C1.48098 12.0153 1.39004 12.0749 1.31337 12.1505C1.23669 12.2261 1.1758 12.3161 1.13425 12.4155C1.09269 12.5148 1.07129 12.6214 1.07129 12.7291C1.07129 12.8368 1.09269 12.9434 1.13425 13.0427C1.1758 13.142 1.23669 13.2321 1.31337 13.3077C1.39004 13.3833 1.48098 13.4429 1.58089 13.4831C1.6808 13.5232 1.7877 13.5431 1.89536 13.5416H5.68703C5.79469 13.5431 5.90159 13.5232 6.0015 13.4831C6.10141 13.4429 6.19235 13.3833 6.26902 13.3077C6.3457 13.2321 6.40658 13.142 6.44814 13.0427C6.4897 12.9434 6.5111 12.8368 6.5111 12.7291C6.5111 12.6214 6.4897 12.5148 6.44814 12.4155C6.40658 12.3161 6.3457 12.2261 6.26902 12.1505C6.19235 12.0749 6.10141 12.0153 6.0015 11.9751C5.90159 11.935 5.79469 11.9151 5.68703 11.9166H1.89536ZM17.3329 13.5416H23.2838C23.2861 13.5662 23.2912 13.591 23.2912 13.6156V17.0624C23.2912 17.5209 22.9372 17.8749 22.4787 17.8749H22.0915C21.7343 16.6299 20.5827 15.7083 19.2287 15.7083C18.5104 15.7083 17.8494 15.9678 17.3329 16.397V13.5416ZM6.77036 17.3333C7.50093 17.3333 8.0782 17.8927 8.11712 18.6123C8.11248 18.6623 8.11248 18.7126 8.11712 18.7625C8.0782 19.4822 7.50093 20.0416 6.77036 20.0416C6.03979 20.0416 5.46252 19.4822 5.4236 18.7625C5.42824 18.7126 5.42824 18.6623 5.4236 18.6123C5.46252 17.8927 6.03979 17.3333 6.77036 17.3333ZM19.2287 17.3333C19.9851 17.3333 20.5829 17.931 20.5829 18.6874C20.5829 19.4438 19.9851 20.0416 19.2287 20.0416C18.4723 20.0416 17.8745 19.4438 17.8745 18.6874C17.8745 17.931 18.4723 17.3333 19.2287 17.3333Z" fill="#25B757"/>
</svg>
