<svg width="26" height="26" viewBox="0 0 26 26" fill="none" xmlns="http://www.w3.org/2000/svg">
<path d="M9.97078 2.70825C9.18115 2.70825 8.4229 3.02183 7.86442 3.58105L3.58081 7.86467C3.02159 8.42314 2.70801 9.18139 2.70801 9.97103V16.0288C2.70801 16.8184 3.02159 17.5767 3.58081 18.1352L7.86442 22.4188C8.42286 22.9772 9.18097 23.2916 9.97078 23.2916H16.0286C16.8182 23.2916 17.5765 22.978 18.1349 22.4188L22.4185 18.1352C22.977 17.5767 23.2913 16.8186 23.2913 16.0288V9.97103C23.2913 9.18139 22.9778 8.42314 22.4185 7.86467L18.1349 3.58105C17.5765 3.02183 16.8182 2.70825 16.0286 2.70825H9.97078ZM9.97078 4.33325H16.0286C16.3883 4.33325 16.732 4.47562 16.986 4.72998L21.2696 9.01359C21.524 9.26761 21.6663 9.61125 21.6663 9.97103V16.0288C21.6663 16.3873 21.5237 16.7322 21.2696 16.9862L16.986 21.2699C16.732 21.5242 16.3883 21.6666 16.0286 21.6666H9.97078C9.61226 21.6666 9.26741 21.5239 9.01335 21.2699L4.72974 16.9862C4.47537 16.7322 4.33301 16.3886 4.33301 16.0288V9.97103C4.33301 9.61125 4.47537 9.26761 4.72974 9.01359L9.01335 4.72998C9.26737 4.47562 9.61101 4.33325 9.97078 4.33325ZM7.06462 10.8333C6.3182 10.8333 5.71045 11.441 5.71045 12.1874C5.71045 12.9338 6.3182 13.5416 7.06462 13.5416H7.53857C7.68807 13.5416 7.80941 13.6629 7.80941 13.8124C7.80941 13.9619 7.68807 14.0833 7.53857 14.0833H6.94613C6.76088 14.0833 6.60858 13.9457 6.56632 13.9034C6.35453 13.6916 6.01322 13.6916 5.80143 13.9034C5.58964 14.1152 5.58964 14.4576 5.80143 14.6694C5.95093 14.8189 6.36058 15.1666 6.94613 15.1666H7.53857C8.28499 15.1666 8.89274 14.5578 8.89274 13.8114C8.89274 13.0649 8.28499 12.4572 7.53857 12.4572H7.06462C6.91512 12.4572 6.79378 12.3359 6.79378 12.1864C6.79378 12.0369 6.91512 11.9155 7.06462 11.9155H7.53857C7.70324 11.9155 7.83214 12.0287 7.83268 12.0287C8.04447 12.24 8.38578 12.2405 8.59758 12.0287C8.80937 11.8169 8.80937 11.4746 8.59758 11.2628C8.5537 11.2189 8.1512 10.8333 7.53857 10.8333H7.06462ZM9.97607 10.8333C9.67707 10.8333 9.43441 11.0759 9.43441 11.3749C9.43441 11.6739 9.67707 11.9166 9.97607 11.9166H10.5177V14.6249C10.5177 14.9239 10.7604 15.1666 11.0594 15.1666C11.3584 15.1666 11.6011 14.9239 11.6011 14.6249V11.9166H12.1427C12.4417 11.9166 12.6844 11.6739 12.6844 11.3749C12.6844 11.0759 12.4417 10.8333 12.1427 10.8333H9.97607ZM14.6691 10.8333C13.6237 10.8333 12.7733 11.805 12.7733 12.9999C12.7733 14.1948 13.6237 15.1666 14.6691 15.1666C15.7145 15.1666 16.5649 14.1948 16.5649 12.9999C16.5649 11.805 15.7145 10.8333 14.6691 10.8333ZM17.6483 10.8333C17.3493 10.8333 17.1066 11.0759 17.1066 11.3749V14.6249C17.1066 14.9239 17.3493 15.1666 17.6483 15.1666C17.9473 15.1666 18.1899 14.9239 18.1899 14.6249V14.0833H18.7316C19.6275 14.0833 20.3566 13.3542 20.3566 12.4583C20.3566 11.5623 19.6275 10.8333 18.7316 10.8333H17.6483ZM14.6691 11.9166C15.1095 11.9166 15.4816 12.4128 15.4816 12.9999C15.4816 13.5871 15.1095 14.0833 14.6691 14.0833C14.2287 14.0833 13.8566 13.5871 13.8566 12.9999C13.8566 12.4128 14.2287 11.9166 14.6691 11.9166ZM18.1899 11.9166H18.7316C19.0301 11.9166 19.2733 12.1598 19.2733 12.4583C19.2733 12.7567 19.0301 12.9999 18.7316 12.9999H18.1899V11.9166Z" fill="#25B757"/>
</svg>
