<svg width="26" height="26" viewBox="0 0 26 26" fill="none" xmlns="http://www.w3.org/2000/svg">
<path d="M12.2235 2.22119C12.0961 2.22498 11.9715 2.25864 11.8596 2.31947C11.7477 2.3803 11.6516 2.46659 11.5792 2.57137C11.5792 2.57137 10.7252 3.81035 9.69287 5.21729C8.66053 6.62423 7.403 8.2328 6.80575 8.79737C5.675 9.86651 4.875 11.3212 4.875 12.9678V16.5203C4.875 19.9511 7.67346 22.7495 11.1042 22.7495H16.1632C18.2045 22.7495 19.9387 21.2187 20.194 19.1938L20.4765 17.1742L20.9314 13.9242L21.1176 12.5996C21.3666 10.8219 19.9617 9.20785 18.167 9.20785H13.5787C13.9537 8.27915 14.2294 7.43834 14.4219 6.49211C14.4222 6.49211 14.4226 6.49211 14.4229 6.49211C14.5355 5.93777 14.6303 5.50288 14.6303 5.04061C14.6303 3.92673 14.0615 3.12695 13.5099 2.72689C12.9583 2.32683 12.3853 2.23177 12.3853 2.23177C12.3319 2.22286 12.2776 2.21931 12.2235 2.22119ZM12.5334 4.03239C12.545 4.04023 12.544 4.03449 12.5557 4.04297C12.789 4.2122 13.0053 4.41574 13.0053 5.04061C13.0053 5.24351 12.9413 5.61879 12.8297 6.16838C12.6302 7.14926 12.4037 7.9136 11.9844 8.89258C11.9844 8.89293 11.9844 8.89329 11.9844 8.89364C11.8083 9.30601 11.8258 9.77157 12.0415 10.1568C12.2572 10.5421 12.7175 10.8328 13.2031 10.8328H18.167C19.0037 10.8328 19.6235 11.5455 19.5074 12.3743L19.3223 13.6999L18.8674 16.9499L18.5838 18.9769C18.5831 18.9811 18.5824 18.9853 18.5817 18.9896C18.4281 20.2162 17.399 21.1245 16.1632 21.1245H11.1042C8.55162 21.1245 6.5 19.0729 6.5 16.5203V12.9678C6.5 11.8476 7.04412 10.808 7.92188 9.97803C8.76924 9.17705 9.954 7.60805 11.0026 6.17896C11.8409 5.03647 12.2778 4.40026 12.5334 4.03239Z" fill="#1A83FF"/>
</svg>
