<svg width="26" height="26" viewBox="0 0 26 26" fill="none" xmlns="http://www.w3.org/2000/svg">
<path d="M13.798 22.7495C13.9253 22.7457 14.05 22.7121 14.1619 22.6512C14.2738 22.5904 14.3699 22.5041 14.4423 22.3993C14.4423 22.3993 15.2963 21.1604 16.3286 19.7534C17.361 18.3465 18.6185 16.7379 19.2157 16.1733C20.3465 15.1042 21.1465 13.6495 21.1465 12.0029V8.45036C21.1465 5.01965 18.348 2.22119 14.9173 2.22119H9.85824C7.81701 2.22119 6.08275 3.75202 5.82747 5.77694L5.545 7.79655L5.09009 11.0465L4.90389 12.3711C4.65489 14.1488 6.05978 15.7629 7.85449 15.7629H12.4428C12.0678 16.6916 11.7921 17.5324 11.5996 18.4786C11.5993 18.4786 11.5989 18.4786 11.5986 18.4786C11.4859 19.0329 11.3912 19.4678 11.3912 19.9301C11.3912 21.044 11.96 21.8438 12.5116 22.2438C13.0631 22.6439 13.6361 22.7389 13.6361 22.7389C13.6896 22.7478 13.7438 22.7514 13.798 22.7495ZM13.488 20.9383C13.4765 20.9305 13.4775 20.9362 13.4658 20.9277C13.2325 20.7585 13.0162 20.555 13.0162 19.9301C13.0162 19.7272 13.0802 19.3519 13.1918 18.8023C13.3913 17.8214 13.6178 17.0571 14.0371 16.0781C14.0371 16.0778 14.0371 16.0774 14.0371 16.0771C14.2132 15.6647 14.1957 15.1991 13.98 14.8139C13.7643 14.4287 13.304 14.1379 12.8184 14.1379H7.85449C7.01779 14.1379 6.39799 13.4252 6.51408 12.5964L6.69922 11.2708L7.15413 8.02083L7.43766 5.99381C7.4384 5.98959 7.43911 5.98536 7.43978 5.98112C7.59337 4.75449 8.62245 3.84619 9.85824 3.84619H14.9173C17.4699 3.84619 19.5215 5.89781 19.5215 8.45036V12.0029C19.5215 13.1231 18.9774 14.1627 18.0996 14.9927C17.2522 15.7937 16.0675 17.3627 15.0189 18.7917C14.1806 19.9342 13.7437 20.5704 13.488 20.9383Z" fill="#2D3646"/>
</svg>
