<svg width="26" height="26" viewBox="0 0 26 26" fill="none" xmlns="http://www.w3.org/2000/svg">
<path d="M5.68685 3.79199C3.75205 3.79199 2.16602 5.37803 2.16602 7.31283V16.5212C2.16602 18.456 3.75205 20.042 5.68685 20.042H6.49935V23.0212C6.49935 24.0861 7.81414 24.7431 8.66602 24.1045L14.0827 20.042H20.3118C22.2466 20.042 23.8327 18.456 23.8327 16.5212V7.31283C23.8327 5.37803 22.2466 3.79199 20.3118 3.79199H5.68685ZM5.68685 5.41699H20.3118C21.3681 5.41699 22.2077 6.25654 22.2077 7.31283V16.5212C22.2077 17.5774 21.3681 18.417 20.3118 18.417H13.8118C13.6359 18.4171 13.4648 18.4742 13.3241 18.5799L8.12435 22.4795V19.2295C8.12433 19.014 8.03872 18.8074 7.88635 18.655C7.73398 18.5026 7.52733 18.417 7.31185 18.417H5.68685C4.63057 18.417 3.79102 17.5774 3.79102 16.5212V7.31283C3.79102 6.25654 4.63057 5.41699 5.68685 5.41699ZM8.39518 9.2076C8.28752 9.20608 8.18062 9.22597 8.08071 9.26612C7.9808 9.30627 7.88986 9.36587 7.81319 9.44147C7.73651 9.51707 7.67563 9.60715 7.63407 9.70649C7.59251 9.80582 7.57111 9.91242 7.57111 10.0201C7.57111 10.1278 7.59251 10.2344 7.63407 10.3337C7.67563 10.433 7.73651 10.5231 7.81319 10.5987C7.88986 10.6743 7.9808 10.7339 8.08071 10.7741C8.18062 10.8142 8.28752 10.8341 8.39518 10.8326H17.6035C17.7112 10.8341 17.8181 10.8142 17.918 10.7741C18.0179 10.7339 18.1088 10.6743 18.1855 10.5987C18.2622 10.5231 18.3231 10.433 18.3646 10.3337C18.4062 10.2344 18.4276 10.1278 18.4276 10.0201C18.4276 9.91242 18.4062 9.80582 18.3646 9.70649C18.3231 9.60715 18.2622 9.51707 18.1855 9.44147C18.1088 9.36587 18.0179 9.30627 17.918 9.26612C17.8181 9.22597 17.7112 9.20608 17.6035 9.2076H8.39518ZM8.39518 12.9993C8.28752 12.9977 8.18062 13.0176 8.08071 13.0578C7.9808 13.0979 7.88986 13.1575 7.81319 13.2331C7.73651 13.3087 7.67563 13.3988 7.63407 13.4982C7.59251 13.5975 7.57111 13.7041 7.57111 13.8118C7.57111 13.9194 7.59251 14.026 7.63407 14.1254C7.67563 14.2247 7.73651 14.3148 7.81319 14.3904C7.88986 14.466 7.9808 14.5256 8.08071 14.5658C8.18062 14.6059 8.28752 14.6258 8.39518 14.6243H15.4368C15.5445 14.6258 15.6514 14.6059 15.7513 14.5658C15.8512 14.5256 15.9422 14.466 16.0188 14.3904C16.0955 14.3148 16.1564 14.2247 16.198 14.1254C16.2395 14.026 16.2609 13.9194 16.2609 13.8118C16.2609 13.7041 16.2395 13.5975 16.198 13.4982C16.1564 13.3988 16.0955 13.3087 16.0188 13.2331C15.9422 13.1575 15.8512 13.0979 15.7513 13.0578C15.6514 13.0176 15.5445 12.9977 15.4368 12.9993H8.39518Z" fill="#1A83FF"/>
</svg>
