<svg width="26" height="26" viewBox="0 0 26 26" fill="none" xmlns="http://www.w3.org/2000/svg">
<path d="M14.8848 3.79207C14.6714 3.79515 14.4677 3.88211 14.3179 4.03415C14.168 4.18619 14.084 4.39109 14.084 4.60457V8.82153C12.6444 8.98211 10.2776 9.39468 7.89502 10.9374C5.18981 12.689 2.78491 15.9093 2.72909 21.2259C2.72827 21.23 2.72566 21.2324 2.72485 21.2365H2.72697C2.72639 21.295 2.70898 21.3373 2.70898 21.3962C2.7092 21.5977 2.78424 21.7919 2.91956 21.9412C3.05488 22.0904 3.24081 22.1841 3.44129 22.204C3.64177 22.2239 3.84249 22.1686 4.00451 22.0489C4.16653 21.9291 4.27829 21.7535 4.31812 21.556C4.96126 18.3405 6.96604 16.9156 9.18783 16.1848C11.0631 15.568 12.899 15.5678 14.084 15.6305V19.7712C14.084 19.9319 14.1317 20.0889 14.221 20.2225C14.3103 20.3561 14.4372 20.4602 14.5856 20.5217C14.7341 20.5831 14.8974 20.5992 15.055 20.5679C15.2125 20.5366 15.3573 20.4593 15.4709 20.3457L23.0543 12.7624C23.2066 12.61 23.2922 12.4034 23.2922 12.1879C23.2922 11.9725 23.2066 11.7658 23.0543 11.6134L15.4709 4.03011C15.3941 3.95326 15.3027 3.8926 15.202 3.85171C15.1013 3.81083 14.9935 3.79055 14.8848 3.79207ZM15.709 6.566L21.3309 12.1879L15.709 17.8098V14.8338C15.7091 14.6315 15.6336 14.4363 15.4975 14.2867C15.3613 14.137 15.1741 14.0435 14.9727 14.0245C13.8438 13.9188 11.2617 13.7921 8.68001 14.6413C7.47387 15.038 6.27609 15.7057 5.24805 16.6598C6.07087 14.648 7.33792 13.2349 8.7784 12.3022C11.1476 10.7681 13.8702 10.3953 14.9557 10.3153C15.1604 10.3004 15.3519 10.2085 15.4916 10.0582C15.6313 9.90783 15.709 9.7102 15.709 9.50496V6.566Z" fill="#1A83FF"/>
</svg>
