<svg width="42" height="33" viewBox="0 0 42 33" fill="none" xmlns="http://www.w3.org/2000/svg">
<g clip-path="url(#clip0_101_1123)">
<path d="M41.4175 21.2569V20.7622H41.2943L41.1505 21.092L41.0068 20.7622H40.8835V21.2569H40.9657V20.8859L41.1094 21.2156H41.2121L41.3559 20.8859V21.2569H41.4175ZM40.596 21.2569V20.8446H40.7603V20.7622H40.3496V20.8446H40.5139V21.2569H40.596Z" fill="#00A2E5"/>
<path d="M26.8169 23.3799H15.707V3.34668H26.8169V23.3799Z" fill="#9192D0"/>
<path d="M16.4257 13.3631C16.4257 9.3029 18.315 5.67549 21.2721 3.34653C19.1159 1.63588 16.3846 0.625977 13.4274 0.625977C6.42474 0.625977 0.736328 6.33502 0.736328 13.3631C0.736328 20.3912 6.42474 26.1003 13.4274 26.1003C16.3846 26.1003 19.1159 25.0904 21.2721 23.3797C18.315 21.0508 16.4257 17.4233 16.4257 13.3631Z" fill="#DB3346"/>
<path d="M41.8082 13.3631C41.8082 20.3912 36.1198 26.1003 29.1171 26.1003C26.16 26.1003 23.4287 25.0904 21.2725 23.3797C24.2296 21.0508 26.1189 17.4233 26.1189 13.3631C26.1189 9.3029 24.2296 5.67549 21.2725 3.34653C23.4287 1.63588 26.16 0.625977 29.1171 0.625977C36.1198 0.625977 41.8082 6.33502 41.8082 13.3631Z" fill="#32B6ED"/>
<path d="M30.554 29.0473C30.6977 29.0473 30.9236 29.0679 31.0674 29.1297L30.8415 29.8305C30.6772 29.7687 30.5334 29.748 30.3897 29.748C29.9173 29.748 29.6709 30.0572 29.6709 30.6137V32.5098H28.9316V29.1297H29.6504V29.5419C29.8557 29.2328 30.1432 29.0473 30.554 29.0473ZM27.8432 29.7893H26.6522V31.3144C26.6522 31.6442 26.7754 31.8709 27.145 31.8709C27.3298 31.8709 27.5763 31.8091 27.8022 31.6854L28.0075 32.3243C27.7816 32.4892 27.412 32.5923 27.0834 32.5923C26.2209 32.5923 25.9129 32.1182 25.9129 31.335V29.7893H25.2352V29.1091H25.9129V28.0786H26.6522V29.1091H27.8432V29.7893ZM18.4584 30.5106C18.5405 30.016 18.828 29.6862 19.362 29.6862C19.8343 29.6862 20.1423 29.9748 20.2245 30.5106H18.4584ZM20.9843 30.8198C20.9843 29.7687 20.3271 29.0473 19.3825 29.0473C18.3968 29.0473 17.6986 29.7687 17.6986 30.8198C17.6986 31.8915 18.4173 32.5923 19.4236 32.5923C19.937 32.5923 20.3887 32.4686 20.7995 32.1182L20.4298 31.5824C20.1423 31.8091 19.7932 31.9327 19.4441 31.9327C18.9718 31.9327 18.5405 31.706 18.4378 31.1083H20.9432C20.9637 31.0053 20.9843 30.9228 20.9843 30.8198ZM24.2084 29.9954C24.003 29.8717 23.5923 29.7068 23.1611 29.7068C22.7504 29.7068 22.5245 29.8511 22.5245 30.0984C22.5245 30.3251 22.7709 30.387 23.0995 30.4282L23.4486 30.4694C24.1879 30.5725 24.6191 30.8816 24.6191 31.4793C24.6191 32.1182 24.0646 32.5923 23.0789 32.5923C22.5245 32.5923 22.0111 32.448 21.6209 32.1594L21.97 31.5824C22.2164 31.7679 22.5861 31.9327 23.0995 31.9327C23.5923 31.9327 23.8593 31.7885 23.8593 31.5205C23.8593 31.335 23.6745 31.232 23.2638 31.1702L22.9146 31.1289C22.1548 31.0259 21.7441 30.6755 21.7441 30.1396C21.7441 29.4595 22.2986 29.0473 23.1405 29.0473C23.6745 29.0473 24.1673 29.171 24.5164 29.3977L24.2084 29.9954ZM33.2441 29.7274C33.1004 29.7274 32.9566 29.748 32.8334 29.8099C32.7102 29.8717 32.587 29.9335 32.5049 30.0366C32.4227 30.1396 32.3406 30.2427 32.279 30.387C32.2174 30.5106 32.1968 30.6755 32.1968 30.8198C32.1968 30.9847 32.2174 31.1289 32.279 31.2526C32.3406 31.3763 32.4022 31.4999 32.5049 31.603C32.6075 31.706 32.7102 31.7679 32.8334 31.8297C32.9566 31.8915 33.1004 31.9121 33.2441 31.9121C33.3879 31.9121 33.5316 31.8915 33.6549 31.8297C33.7781 31.7679 33.9013 31.706 33.9834 31.603C34.0861 31.4999 34.1477 31.3969 34.2093 31.2526C34.2709 31.1289 34.2915 30.9641 34.2915 30.8198C34.2915 30.6549 34.2709 30.5106 34.2093 30.387C34.1477 30.2633 34.0861 30.1396 33.9834 30.0366C33.8808 29.9335 33.7781 29.8717 33.6549 29.8099C33.5316 29.7687 33.3879 29.7274 33.2441 29.7274ZM33.2441 29.0473C33.5111 29.0473 33.7575 29.0885 33.9629 29.1916C34.1888 29.274 34.3736 29.3977 34.5379 29.5626C34.7022 29.7274 34.8254 29.9129 34.9281 30.119C35.0102 30.3457 35.0718 30.5725 35.0718 30.8198C35.0718 31.0671 35.0308 31.3144 34.9281 31.5205C34.8459 31.7472 34.7022 31.9327 34.5379 32.077C34.3736 32.2419 34.1888 32.3656 33.9629 32.448C33.737 32.5304 33.4906 32.5923 33.2441 32.5923C32.9772 32.5923 32.7308 32.551 32.5254 32.448C32.2995 32.3656 32.1147 32.2419 31.9504 32.077C31.7861 31.9121 31.6629 31.7266 31.5602 31.5205C31.4781 31.2938 31.4165 31.0671 31.4165 30.8198C31.4165 30.5725 31.4575 30.3251 31.5602 30.119C31.6424 29.8923 31.7861 29.7068 31.9504 29.5626C32.1147 29.3977 32.2995 29.274 32.5254 29.1916C32.7308 29.0885 32.9772 29.0473 33.2441 29.0473ZM14.1869 30.8198C14.1869 30.2221 14.5771 29.7274 15.2137 29.7274C15.8298 29.7274 16.22 30.2015 16.22 30.8198C16.22 31.4381 15.8093 31.8915 15.2137 31.8915C14.5771 31.8915 14.1869 31.4175 14.1869 30.8198ZM16.9182 30.8198V29.1297H16.1789V29.5419C15.953 29.2328 15.6039 29.0473 15.111 29.0473C14.1664 29.0473 13.4271 29.7893 13.4271 30.8198C13.4271 31.8503 14.1664 32.5923 15.111 32.5923C15.5834 32.5923 15.9325 32.4068 16.1789 32.0976V32.5098H16.9182V30.8198ZM12.7905 32.5098V30.387C12.7905 29.5832 12.2771 29.0473 11.4557 29.0473C11.0244 29.0473 10.5726 29.171 10.2646 29.645C10.0387 29.274 9.66906 29.0473 9.15567 29.0473C8.80656 29.0473 8.43692 29.1503 8.16995 29.5419V29.1297H7.43066V32.5098H8.16995V30.6343C8.16995 30.0572 8.49853 29.7274 8.99138 29.7274C9.48424 29.7274 9.73067 30.0366 9.73067 30.6137V32.4892H10.47V30.6137C10.47 30.0366 10.8191 29.7068 11.2914 29.7068C11.7843 29.7068 12.0307 30.016 12.0307 30.5931V32.4686H12.7905V32.5098Z" fill="white"/>
<path d="M35.852 32.2418V32.3243H35.9341C35.9546 32.3243 35.9752 32.3243 35.9752 32.3037C35.9957 32.3037 35.9957 32.2831 35.9957 32.2625C35.9957 32.2418 35.9957 32.2418 35.9752 32.2418C35.9752 32.2418 35.9546 32.2212 35.9341 32.2212H35.852V32.2418ZM35.9341 32.2006C35.9752 32.2006 35.9957 32.2006 36.0162 32.2212C36.0368 32.2418 36.0573 32.2625 36.0573 32.3037C36.0573 32.3243 36.0573 32.3449 36.0368 32.3655C36.0162 32.3861 35.9957 32.3861 35.9546 32.3861L36.0573 32.5098H35.9752L35.8725 32.3861H35.852V32.5098H35.7903V32.2006H35.9341ZM35.9136 32.6128C35.9546 32.6128 35.9752 32.6128 36.0162 32.5922C36.0573 32.5716 36.0778 32.551 36.0984 32.5304C36.1189 32.5098 36.1394 32.4892 36.16 32.448C36.1805 32.4067 36.1805 32.3861 36.1805 32.3449C36.1805 32.3037 36.1805 32.2831 36.16 32.2418C36.1394 32.2006 36.1189 32.18 36.0984 32.1594C36.0778 32.1388 36.0573 32.1182 36.0162 32.0976C35.9957 32.077 35.9546 32.077 35.9136 32.077C35.8725 32.077 35.852 32.077 35.8109 32.0976C35.7698 32.1182 35.7493 32.1388 35.7287 32.1594C35.7082 32.18 35.6877 32.2212 35.6671 32.2418C35.6466 32.2831 35.6466 32.3037 35.6466 32.3449C35.6466 32.3861 35.6466 32.4067 35.6671 32.448C35.6877 32.4892 35.7082 32.5098 35.7287 32.5304C35.7493 32.551 35.7903 32.5716 35.8109 32.5922C35.852 32.6128 35.8725 32.6128 35.9136 32.6128ZM35.9136 32.0151C35.9546 32.0151 35.9957 32.0151 36.0368 32.0357C36.0778 32.0564 36.1189 32.077 36.1394 32.0976C36.16 32.1182 36.2011 32.1594 36.2216 32.2006C36.2421 32.2418 36.2421 32.2831 36.2421 32.3243C36.2421 32.3655 36.2421 32.4067 36.2216 32.448C36.2011 32.4892 36.1805 32.5304 36.1394 32.551C36.0984 32.5716 36.0778 32.6128 36.0368 32.6334C35.9957 32.6541 35.9546 32.6541 35.9136 32.6541C35.8725 32.6541 35.8109 32.6541 35.7698 32.6334C35.7287 32.6128 35.6877 32.5922 35.6671 32.551C35.6466 32.5304 35.6055 32.4892 35.585 32.448C35.5645 32.4067 35.5645 32.3655 35.5645 32.3243C35.5645 32.2831 35.5645 32.2418 35.585 32.2006C35.6055 32.1594 35.6261 32.1182 35.6671 32.0976C35.6877 32.077 35.7287 32.0357 35.7698 32.0357C35.8109 32.0151 35.8725 32.0151 35.9136 32.0151Z" fill="white"/>
</g>
<defs>
<clipPath id="clip0_101_1123">
<rect width="41.0716" height="32.0696" fill="white" transform="translate(0.736328 0.625977)"/>
</clipPath>
</defs>
</svg>
