<svg width="69" height="17" viewBox="0 0 69 17" fill="none" xmlns="http://www.w3.org/2000/svg">
<g clip-path="url(#clip0_101_1135)">
<path d="M66.0664 5.2124L64.5496 8.91032C64.5496 8.9617 64.4973 9.01308 64.4973 9.06442L64.4449 9.16714L64.3926 9.06442C64.3926 9.01308 64.3402 8.9617 64.3402 8.91032L62.8235 5.2124H60.8359L63.451 11.5811L62.3527 13.995H64.3402L68.0015 5.2124H66.0664Z" fill="white"/>
<path d="M51.4211 5.57205C51.055 5.31523 50.6365 5.16117 50.1134 5.1098C49.2241 5.00708 48.3872 5.31523 47.8641 5.93158V5.21252H46.0859V11.5812H47.8641V8.24278C47.8641 7.47237 48.0211 7.31831 48.1258 7.11287C48.3349 6.75334 48.7533 6.5479 49.2241 6.59924C49.6949 6.59924 50.1657 6.80471 50.3748 7.16421C50.5318 7.42103 50.5318 7.72918 50.5318 7.93462C50.5318 8.49959 50.5318 11.5812 50.5318 11.5812H52.3103V7.72918C52.3103 6.70199 51.9962 6.0343 51.4211 5.57205Z" fill="white"/>
<path d="M42.6862 5.26402C41.7973 4.95587 40.8557 5.00721 39.9664 5.41812C39.3389 5.6749 38.8681 6.13715 38.502 6.70212C38.1879 7.21572 38.0312 7.78069 38.0312 8.44835C38.0312 9.11604 38.1879 9.68101 38.502 10.1946C38.8158 10.7082 39.2342 11.0677 39.7574 11.3759C40.2802 11.6327 40.908 11.7868 41.4832 11.7868C41.7973 11.7868 42.111 11.7354 42.4248 11.684C42.6862 11.6327 42.9479 11.53 43.2093 11.3759C43.7325 11.0677 44.1509 10.7082 44.4647 10.246C44.7784 9.73235 44.9355 9.16742 44.9355 8.49972C44.8831 6.9589 44.0462 5.77762 42.6862 5.26402ZM43.157 8.44835C43.157 9.01332 42.9479 9.47557 42.5818 9.78373C42.3201 10.0405 41.954 10.1433 41.4308 10.1433C40.9604 10.1433 40.5939 9.98917 40.2802 9.78373C39.9141 9.47557 39.7574 9.01332 39.705 8.44835C39.705 7.83203 39.9141 7.26706 40.3849 6.90756C40.6463 6.70212 40.9604 6.59941 41.3788 6.59941C41.7973 6.59941 42.111 6.70212 42.3724 6.90756C42.9479 7.26706 43.2093 7.83203 43.157 8.44835Z" fill="white"/>
<path d="M35.9911 5.57215C35.6773 5.31534 35.2065 5.16128 34.6834 5.1099C34.5788 5.1099 34.4742 5.1099 34.3696 5.1099C33.6373 5.1099 33.062 5.41806 32.5389 6.03441L32.4343 6.13713H32.2251C32.0682 5.93169 31.9113 5.72621 31.7021 5.6235C31.3882 5.31534 30.9698 5.16128 30.4467 5.1099C29.6099 5.00718 28.9299 5.264 28.3546 5.88031V5.21262H26.5762V11.5813H28.3546V8.24288V8.19151C28.3546 7.47247 28.4592 7.31841 28.5638 7.11297C28.773 6.75344 29.1914 6.548 29.6099 6.548C30.0283 6.548 30.4468 6.75344 30.656 7.11297C30.8129 7.36975 30.8129 7.67791 30.8129 7.98607V11.5299H32.6436V8.14016C32.6436 7.52385 32.7482 7.26703 32.8528 7.0616C33.062 6.70206 33.4804 6.548 33.8989 6.548C34.3173 6.548 34.6834 6.80478 34.8927 7.11297C34.9973 7.31841 35.0496 7.57519 35.0496 7.78063C35.0496 7.88335 35.0496 7.93473 35.0496 8.03744V11.5813H36.8279V7.72929C36.8279 7.36975 36.7757 7.0616 36.7233 6.75344C36.6187 6.23985 36.3572 5.82897 35.9911 5.57215Z" fill="white"/>
<path d="M59.0577 9.62949C58.7963 9.8863 58.1684 10.3486 57.3315 10.3999C56.6517 10.3999 56.0762 10.2458 55.7101 9.83493C55.5534 9.62949 55.3963 9.42405 55.344 9.16727H60.313V9.11589C60.3654 8.85912 60.3654 8.6023 60.3654 8.39686C60.3654 8.19142 60.313 7.88327 60.2083 7.47239C59.9993 6.75332 59.5808 6.18839 59.0053 5.72613C58.3778 5.26388 57.75 5.10982 57.5933 5.10982C56.2856 4.90438 54.8208 5.46932 54.0886 6.6506C53.5655 7.47239 53.5655 8.29414 53.6178 8.55092C53.6178 8.85912 53.6702 9.83493 54.4547 10.6567C55.344 11.6326 56.6517 11.6839 57.0701 11.7353C58.8486 11.7866 60.0516 10.7081 60.313 10.4513L59.0577 9.62949ZM55.9718 6.95876C56.2332 6.75332 56.547 6.6506 56.9654 6.6506C57.3839 6.6506 57.6976 6.75332 57.9594 6.95876C58.2208 7.1642 58.4302 7.42101 58.5345 7.78055H55.344C55.501 7.42101 55.7101 7.1642 55.9718 6.95876Z" fill="white"/>
<path d="M14.2327 1.05225C10.2053 1.05225 7.01465 4.23657 7.01465 8.13996C7.01465 12.0433 10.2575 15.2277 14.2327 15.2277C18.2079 15.2277 21.4508 12.0433 21.4508 8.13996C21.5031 4.23657 18.2079 1.05225 14.2327 1.05225ZM14.2327 10.7593C12.7682 10.7593 11.5129 9.57802 11.5129 8.13996C11.5129 6.70186 12.7159 5.52057 14.2327 5.52057C15.7496 5.52057 16.9526 6.70186 16.9526 8.13996C16.9003 9.57802 15.7496 10.7593 14.2327 10.7593Z" fill="#9B58FF"/>
<path d="M7.01441 3.1582V13.4816H4.45145L1.15625 3.1582H7.01441Z" fill="#9B58FF"/>
</g>
<defs>
<clipPath id="clip0_101_1135">
<rect width="67.5149" height="16.3161" fill="white" transform="translate(0.794922 0.327148)"/>
</clipPath>
</defs>
</svg>
