<svg width="68" height="20" viewBox="0 0 68 20" fill="none" xmlns="http://www.w3.org/2000/svg">
<path d="M17.0787 4.21582C17.51 4.78095 17.8751 5.39492 18.1667 6.0454L9.896 12.2242L6.43945 10.0283V7.38651L9.896 9.58243L17.0787 4.21582Z" fill="#4CCF64"/>
<path d="M2.91207 9.8412C2.91207 9.72266 2.91492 9.6049 2.92063 9.48782L0.825862 9.38379C0.818732 9.53553 0.814456 9.68873 0.814456 9.84334C0.813564 11.0514 1.04803 12.2477 1.5044 13.3637C1.96078 14.4797 2.63008 15.4934 3.4739 16.3466L4.95977 14.8415C4.31022 14.1858 3.79493 13.4066 3.44352 12.5484C3.0921 11.6903 2.91149 10.7703 2.91207 9.8412Z" fill="url(#paint0_linear_101_1092)"/>
<path d="M9.8951 2.76503C10.012 2.76503 10.1282 2.76937 10.2437 2.77514L10.3485 0.65147C10.1984 0.644244 10.0472 0.640632 9.8951 0.640632C8.70251 0.639158 7.52145 0.876435 6.41964 1.33884C5.31782 1.80124 4.31699 2.47967 3.47461 3.33515L4.96048 4.84102C5.60743 4.18251 6.37645 3.6601 7.22331 3.30383C8.07017 2.94755 8.97814 2.76444 9.8951 2.76503Z" fill="url(#paint1_linear_101_1092)"/>
<path d="M9.8936 16.917C9.77669 16.917 9.66045 16.917 9.54427 16.9076L9.43945 19.0306C9.59012 19.0383 9.74153 19.0422 9.8936 19.0422C11.0857 19.0434 12.2662 18.806 13.3674 18.3435C14.4686 17.8809 15.4688 17.2024 16.3106 16.3469L14.8275 14.8418C14.1805 15.5 13.4115 16.0221 12.5648 16.3782C11.7181 16.7344 10.8103 16.9175 9.8936 16.917Z" fill="url(#paint2_linear_101_1092)"/>
<path d="M13.8292 3.99968L15.5946 2.68096C13.981 1.3568 11.9669 0.635973 9.89062 0.639663V2.76478C11.2966 2.76301 12.6699 3.19361 13.8292 3.99968Z" fill="url(#paint3_linear_101_1092)"/>
<path d="M18.9732 9.84132C18.9743 9.28849 18.9266 8.73661 18.8306 8.19238L16.8763 9.652C16.8763 9.7149 16.8763 9.77775 16.8763 9.84132C16.8768 10.83 16.6723 11.8078 16.2761 12.7113C15.8798 13.6147 15.3007 14.4237 14.5762 15.0858L15.9858 16.6647C16.9277 15.8029 17.6803 14.7502 18.195 13.5748C18.7097 12.3993 18.9748 11.1273 18.9732 9.84132Z" fill="#58D16E"/>
<path d="M9.89488 16.918C8.91923 16.9183 7.95438 16.711 7.06279 16.3094C6.17125 15.9079 5.37283 15.321 4.71927 14.5869L3.16211 16.0147C4.01232 16.9695 5.05104 17.7324 6.21091 18.2541C7.37077 18.7758 8.62588 19.0446 9.89488 19.0431V16.918Z" fill="url(#paint4_linear_101_1092)"/>
<path d="M5.21218 4.59643L3.80331 3.01758C2.86114 3.87917 2.1082 4.93184 1.59329 6.10732C1.0784 7.28279 0.813049 8.55482 0.814459 9.84093H2.91207C2.91164 8.85228 3.11617 7.8745 3.5124 6.97104C3.90863 6.0676 4.48773 5.25858 5.21218 4.59643Z" fill="url(#paint5_linear_101_1092)"/>
<path d="M53.212 5.90312L55.8099 3.98535H47.1152V15.5095H55.8099V13.5917H49.5962V10.6398H54.8968V8.72202H49.5962V5.90312H53.212Z" fill="#4CCF64"/>
<path d="M41.2657 8.47353H38.2471V5.90113H43.0646L45.661 3.97754H35.7676V15.5017H40.9464C43.8498 15.5017 45.5162 14.1831 45.5162 11.8835C45.5162 9.68362 44.0069 8.47353 41.2657 8.47353ZM40.8347 13.5833H38.2471V10.3901H40.8347C42.4051 10.3901 43.1414 10.9252 43.1414 11.9867C43.1414 13.0482 42.3579 13.5833 40.8347 13.5833Z" fill="#4CCF64"/>
<path d="M62.2015 3.9834H57.4688V15.5075H59.9494V12.2429H62.2015C65.2212 12.2429 67.0891 10.6508 67.0891 8.107C67.0891 5.56322 65.2212 3.9834 62.2015 3.9834ZM62.1492 10.3237H59.9494V5.90263H62.1492C63.7375 5.90263 64.6141 6.68817 64.6141 8.11403C64.6141 9.53989 63.7375 10.3237 62.1492 10.3237Z" fill="#4CCF64"/>
<path d="M32.0444 12.7874C31.4035 13.1351 30.6856 13.3152 29.9569 13.3109C27.776 13.3109 26.1938 11.7508 26.1938 9.60253C26.1938 7.45421 27.776 5.89073 29.9569 5.89073C30.7434 5.87734 31.5136 6.1163 32.1549 6.57274L33.8902 5.29227L33.7728 5.20872C32.7606 4.31701 31.4081 3.84473 29.86 3.84473C28.1808 3.84473 26.6583 4.41078 25.5712 5.4406C25.0215 5.97084 24.5868 6.60892 24.2941 7.31501C24.0014 8.02111 23.8569 8.78003 23.8699 9.54453C23.8583 10.3168 24.0021 11.0835 24.2926 11.7988C24.5831 12.5142 25.0145 13.1635 25.561 13.7082C26.6531 14.7789 28.1723 15.3688 29.8396 15.3688C31.5816 15.3688 33.1042 14.7601 34.1352 13.6519L32.582 12.4925L32.0444 12.7874Z" fill="#4CCF64"/>
<defs>
<linearGradient id="paint0_linear_101_1092" x1="3.89813" y1="16.0814" x2="1.55129" y2="9.38728" gradientUnits="userSpaceOnUse">
<stop offset="0.14" stop-color="#F1E813"/>
<stop offset="0.3" stop-color="#E6E418"/>
<stop offset="0.58" stop-color="#C9DA26"/>
<stop offset="0.89" stop-color="#A2CC39"/>
</linearGradient>
<linearGradient id="paint1_linear_101_1092" x1="4.07352" y1="3.7109" x2="9.99615" y2="1.48383" gradientUnits="userSpaceOnUse">
<stop offset="0.06" stop-color="#0FA7DF"/>
<stop offset="0.54" stop-color="#0098F8"/>
<stop offset="0.92" stop-color="#47B8FF"/>
</linearGradient>
<linearGradient id="paint2_linear_101_1092" x1="9.30116" y1="17.7596" x2="15.9847" y2="16.2697" gradientUnits="userSpaceOnUse">
<stop offset="0.12" stop-color="#A2CC39"/>
<stop offset="0.28" stop-color="#86C239"/>
<stop offset="0.87" stop-color="#58D16E"/>
</linearGradient>
<linearGradient id="paint3_linear_101_1092" x1="9.45431" y1="1.35141" x2="15.1742" y2="3.0931" gradientUnits="userSpaceOnUse">
<stop offset="0.06" stop-color="#47B8FF"/>
<stop offset="0.79" stop-color="#47B8FF"/>
</linearGradient>
<linearGradient id="paint4_linear_101_1092" x1="3.68829" y1="15.756" x2="9.92002" y2="18.0541" gradientUnits="userSpaceOnUse">
<stop offset="0.13" stop-color="#F1E813"/>
<stop offset="0.3" stop-color="#EAE616"/>
<stop offset="0.53" stop-color="#D8DF1F"/>
<stop offset="0.8" stop-color="#BAD52D"/>
<stop offset="0.98" stop-color="#A2CC39"/>
</linearGradient>
<linearGradient id="paint5_linear_101_1092" x1="1.59589" y1="10.0982" x2="4.14788" y2="3.54769" gradientUnits="userSpaceOnUse">
<stop offset="0.07" stop-color="#A2CC39"/>
<stop offset="0.26" stop-color="#81C45E"/>
<stop offset="0.92" stop-color="#0FA7DF"/>
</linearGradient>
</defs>
</svg>
