<svg width="43" height="33" viewBox="0 0 43 33" fill="none" xmlns="http://www.w3.org/2000/svg">
<g clip-path="url(#clip0_101_1108)">
<path d="M8.40873 32.6251V30.4968C8.40873 29.6827 7.91548 29.1496 7.06873 29.1496C6.64535 29.1496 6.18498 29.2901 5.86848 29.7529C5.62185 29.3645 5.26835 29.1496 4.73811 29.1496C4.38461 29.1496 4.03111 29.257 3.7516 29.6455V29.2198H3.01172V32.6251H3.7516V30.7448C3.7516 30.1414 4.0681 29.8562 4.56136 29.8562C5.05461 29.8562 5.30124 30.1745 5.30124 30.7448V32.6251H6.04112V30.7448C6.04112 30.1414 6.39461 29.8562 6.85087 29.8562C7.34413 29.8562 7.59075 30.1745 7.59075 30.7448V32.6251H8.40873ZM19.3836 29.2198H18.1834V28.1908H17.4435V29.2198H16.7735V29.8934H17.4435V31.4556C17.4435 32.2367 17.76 32.6954 18.6067 32.6954C18.9233 32.6954 19.2767 32.5879 19.5234 32.4474L19.3096 31.8069C19.0959 31.9474 18.8493 31.9846 18.6725 31.9846C18.319 31.9846 18.1793 31.7697 18.1793 31.4184V29.8934H19.3795V29.2198H19.3836ZM25.6644 29.1454C25.241 29.1454 24.9574 29.3603 24.7806 29.6413V29.2157H24.0408V32.621H24.7806V30.7034C24.7806 30.1373 25.0273 29.8149 25.4876 29.8149C25.6274 29.8149 25.8041 29.8521 25.948 29.8852L26.1617 29.1743C26.0138 29.1454 25.8041 29.1454 25.6644 29.1454ZM16.1734 29.5008C15.8199 29.2529 15.3266 29.1454 14.7964 29.1454C13.9496 29.1454 13.3865 29.5711 13.3865 30.2447C13.3865 30.8109 13.8099 31.1332 14.5497 31.2365L14.9032 31.2737C15.2896 31.344 15.5034 31.4514 15.5034 31.6292C15.5034 31.8771 15.2197 32.0548 14.7265 32.0548C14.2332 32.0548 13.8427 31.8771 13.5961 31.6994L13.2426 32.2656C13.629 32.5507 14.1592 32.6912 14.6895 32.6912C15.676 32.6912 16.2432 32.2284 16.2432 31.592C16.2432 30.9886 15.7829 30.6704 15.08 30.5629L14.7265 30.5257C14.41 30.4885 14.1634 30.4183 14.1634 30.2075C14.1634 29.9596 14.41 29.819 14.8005 29.819C15.2238 29.819 15.6472 29.9967 15.861 30.1042L16.1734 29.5008ZM35.8583 29.1454C35.4349 29.1454 35.1513 29.3603 34.9745 29.6413V29.2157H34.2347V32.621H34.9745V30.7034C34.9745 30.1373 35.2212 29.8149 35.6815 29.8149C35.8213 29.8149 35.998 29.8521 36.1419 29.8852L36.3556 29.1826C36.2118 29.1454 36.0021 29.1454 35.8583 29.1454ZM26.4043 30.9225C26.4043 31.9515 27.1113 32.6954 28.2046 32.6954C28.6979 32.6954 29.0514 32.5879 29.4049 32.3069L29.0514 31.7035C28.7678 31.9184 28.4883 32.0218 28.1676 32.0218C27.5675 32.0218 27.1441 31.5961 27.1441 30.9225C27.1441 30.2819 27.5675 29.8562 28.1676 29.8232C28.4841 29.8232 28.7678 29.9306 29.0514 30.1414L29.4049 29.538C29.0514 29.2529 28.6979 29.1496 28.2046 29.1496C27.1113 29.1454 26.4043 29.8934 26.4043 30.9225ZM33.2481 30.9225V29.2198H32.5083V29.6455C32.2616 29.3273 31.9081 29.1496 31.4478 29.1496C30.4941 29.1496 29.7543 29.8934 29.7543 30.9225C29.7543 31.9515 30.4941 32.6954 31.4478 32.6954C31.941 32.6954 32.2945 32.5177 32.5083 32.1995V32.6251H33.2481V30.9225ZM30.5311 30.9225C30.5311 30.3191 30.9175 29.8232 31.5546 29.8232C32.1548 29.8232 32.5781 30.286 32.5781 30.9225C32.5781 31.5258 32.1548 32.0218 31.5546 32.0218C30.9216 31.9846 30.5311 31.5217 30.5311 30.9225ZM21.6772 29.1454C20.6907 29.1454 19.9837 29.8562 19.9837 30.9183C19.9837 31.9846 20.6907 32.6912 21.7142 32.6912C22.2075 32.6912 22.7007 32.5507 23.0912 32.2284L22.7377 31.6953C22.4541 31.9102 22.1006 32.0507 21.7512 32.0507C21.2909 32.0507 20.8346 31.8358 20.7277 31.2365H23.231C23.231 31.1291 23.231 31.0588 23.231 30.9514C23.2639 29.8562 22.6268 29.1454 21.6772 29.1454ZM21.6772 29.786C22.1376 29.786 22.4541 30.0711 22.524 30.6001H20.7606C20.8305 30.1414 21.147 29.786 21.6772 29.786ZM40.0592 30.9225V27.8726H39.3193V29.6455C39.0726 29.3273 38.7192 29.1496 38.2588 29.1496C37.3052 29.1496 36.5653 29.8934 36.5653 30.9225C36.5653 31.9515 37.3052 32.6954 38.2588 32.6954C38.752 32.6954 39.1055 32.5177 39.3193 32.1995V32.6251H40.0592V30.9225ZM37.3422 30.9225C37.3422 30.3191 37.7285 29.8232 38.3657 29.8232C38.9658 29.8232 39.3892 30.286 39.3892 30.9225C39.3892 31.5258 38.9658 32.0218 38.3657 32.0218C37.7285 31.9846 37.3422 31.5217 37.3422 30.9225ZM12.5726 30.9225V29.2198H11.8327V29.6455C11.5861 29.3273 11.2326 29.1496 10.7722 29.1496C9.81861 29.1496 9.07873 29.8934 9.07873 30.9225C9.07873 31.9515 9.81861 32.6954 10.7722 32.6954C11.2655 32.6954 11.619 32.5177 11.8327 32.1995V32.6251H12.5726V30.9225ZM9.82272 30.9225C9.82272 30.3191 10.2091 29.8232 10.8462 29.8232C11.4464 29.8232 11.8697 30.286 11.8697 30.9225C11.8697 31.5258 11.4464 32.0218 10.8462 32.0218C10.2091 31.9846 9.82272 31.5217 9.82272 30.9225Z" fill="white"/>
<path d="M27.0414 3.35791H15.9268V23.4345H27.0414V3.35791Z" fill="#FF7428"/>
<path d="M16.6667 13.3959C16.6667 9.317 18.574 5.69677 21.5006 3.35768C19.3468 1.65501 16.6298 0.625977 13.6661 0.625977C6.64548 0.625977 0.964844 6.33734 0.964844 13.3959C0.964844 20.4546 6.64548 26.1659 13.6661 26.1659C16.6298 26.1659 19.3468 25.1369 21.5006 23.4342C18.5699 21.1282 16.6667 17.4749 16.6667 13.3959Z" fill="#DB3346"/>
<path d="M42.0368 13.3959C42.0368 20.4546 36.3561 26.1659 29.3355 26.1659C26.3719 26.1659 23.6548 25.1369 21.501 23.4342C24.4646 21.091 26.3349 17.4749 26.3349 13.3959C26.3349 9.317 24.4276 5.69677 21.501 3.35768C23.6507 1.65501 26.3677 0.625977 29.3314 0.625977C36.3561 0.625977 42.0368 6.37453 42.0368 13.3959Z" fill="#FFB13E"/>
</g>
<defs>
<clipPath id="clip0_101_1108">
<rect width="41.0716" height="32.0696" fill="white" transform="translate(0.964844 0.625977)"/>
</clipPath>
</defs>
</svg>
