<svg width="22" height="22" viewBox="0 0 22 22" fill="none" xmlns="http://www.w3.org/2000/svg">
<path d="M8.00727 5.49345C7.82873 5.49865 7.65921 5.57314 7.53462 5.70113L2.95128 10.2845C2.8224 10.4134 2.75 10.5882 2.75 10.7705C2.75 10.9529 2.8224 11.1277 2.95128 11.2566L7.53462 15.84C7.59797 15.9059 7.67385 15.9586 7.75781 15.9949C7.84177 16.0312 7.93213 16.0504 8.0236 16.0513C8.11506 16.0522 8.20579 16.0349 8.29047 16.0003C8.37516 15.9658 8.45209 15.9146 8.51677 15.85C8.58145 15.7853 8.63257 15.7083 8.66714 15.6237C8.70172 15.539 8.71905 15.4482 8.71812 15.3568C8.71719 15.2653 8.69802 15.175 8.66173 15.091C8.62544 15.007 8.57276 14.9311 8.50678 14.8678L4.40954 10.7705L8.50678 6.6733C8.60597 6.5767 8.67368 6.45241 8.70106 6.3167C8.72844 6.18098 8.71421 6.04017 8.66023 5.91267C8.60625 5.78518 8.51504 5.67695 8.39854 5.60215C8.28204 5.52735 8.14566 5.48946 8.00727 5.49345ZM11.6739 5.49345C11.4954 5.49865 11.3259 5.57314 11.2013 5.70113L6.61795 10.2845C6.48907 10.4134 6.41667 10.5882 6.41667 10.7705C6.41667 10.9529 6.48907 11.1277 6.61795 11.2566L11.2013 15.84C11.2646 15.9059 11.3405 15.9586 11.4245 15.9949C11.5084 16.0312 11.5988 16.0504 11.6903 16.0513C11.7817 16.0522 11.8725 16.0349 11.9571 16.0003C12.0418 15.9658 12.1188 15.9146 12.1834 15.85C12.2481 15.7853 12.2992 15.7083 12.3338 15.6237C12.3684 15.539 12.3857 15.4482 12.3848 15.3568C12.3839 15.2653 12.3647 15.175 12.3284 15.091C12.2921 15.007 12.2394 14.9311 12.1735 14.8678L8.7637 11.458H12.1457C15.318 11.458 17.8749 14.0149 17.8749 17.1872C17.8736 17.2783 17.8904 17.3688 17.9244 17.4533C17.9584 17.5379 18.0088 17.6148 18.0728 17.6797C18.1367 17.7446 18.2129 17.7961 18.297 17.8312C18.3811 17.8664 18.4713 17.8845 18.5624 17.8845C18.6535 17.8845 18.7437 17.8664 18.8277 17.8312C18.9118 17.7961 18.988 17.7446 19.052 17.6797C19.1159 17.6148 19.1664 17.5379 19.2003 17.4533C19.2343 17.3688 19.2512 17.2783 19.2499 17.1872C19.2499 13.2718 16.0611 10.083 12.1457 10.083H8.7637L12.1735 6.6733C12.2726 6.5767 12.3403 6.45241 12.3677 6.3167C12.3951 6.18098 12.3809 6.04017 12.3269 5.91267C12.2729 5.78518 12.1817 5.67695 12.0652 5.60215C11.9487 5.52735 11.8123 5.48946 11.6739 5.49345Z" fill="#1A83FF"/>
</svg>
