<svg width="22" height="22" viewBox="0 0 22 22" fill="none" xmlns="http://www.w3.org/2000/svg">
<path d="M6.19431 5.49292C6.33113 5.49295 6.46484 5.53381 6.57831 5.61025C6.69178 5.6867 6.77987 5.79526 6.8313 5.92205C6.88272 6.04884 6.89515 6.18809 6.86699 6.32199C6.83884 6.45588 6.77137 6.57833 6.67323 6.67367L3.26348 10.0834H20.3955C20.4866 10.0821 20.577 10.099 20.6616 10.1329C20.7461 10.1669 20.8231 10.2173 20.8879 10.2813C20.9528 10.3453 21.0043 10.4215 21.0395 10.5055C21.0747 10.5896 21.0928 10.6798 21.0928 10.7709C21.0928 10.862 21.0747 10.9522 21.0395 11.0363C21.0043 11.1203 20.9528 11.1966 20.8879 11.2605C20.8231 11.3245 20.7461 11.3749 20.6616 11.4089C20.577 11.4429 20.4866 11.4597 20.3955 11.4584H3.26348L6.67323 14.8682C6.73921 14.9315 6.79189 15.0074 6.82818 15.0914C6.86447 15.1753 6.88364 15.2657 6.88457 15.3571C6.8855 15.4486 6.86817 15.5393 6.83359 15.624C6.79902 15.7087 6.7479 15.7856 6.68322 15.8503C6.61854 15.915 6.54161 15.9661 6.45692 16.0007C6.37224 16.0353 6.28151 16.0526 6.19005 16.0517C6.09858 16.0507 6.00822 16.0316 5.92426 15.9953C5.8403 15.959 5.76442 15.9063 5.70107 15.8403L1.11773 11.257C0.988852 11.1281 0.916451 10.9532 0.916451 10.7709C0.916451 10.5886 0.988852 10.4138 1.11773 10.2848L5.70107 5.7015C5.76515 5.6355 5.84182 5.58304 5.92655 5.54721C6.01127 5.51139 6.10232 5.49292 6.19431 5.49292Z" fill="#2D3646"/>
</svg>
