<svg width="22" height="22" viewBox="0 0 22 22" fill="none" xmlns="http://www.w3.org/2000/svg">
<path d="M7.56185 2.29175C4.65894 2.29175 2.29102 4.65968 2.29102 7.56258V14.4376C2.29102 17.3401 4.65886 19.7084 7.56185 19.7084H14.4368C17.3394 19.7084 19.7077 17.3402 19.7077 14.4376V7.56258C19.7077 4.65959 17.3394 2.29175 14.4368 2.29175H7.56185ZM7.56185 3.66675H14.4368C16.5962 3.66675 18.3327 5.40282 18.3327 7.56258V14.4376C18.3327 16.5968 16.5961 18.3334 14.4368 18.3334H7.56185C5.40209 18.3334 3.66602 16.5969 3.66602 14.4376V7.56258C3.66602 5.40274 5.402 3.66675 7.56185 3.66675ZM15.5827 5.50008C15.0762 5.50008 14.666 5.91029 14.666 6.41675C14.666 6.92321 15.0762 7.33341 15.5827 7.33341C16.0891 7.33341 16.4993 6.92321 16.4993 6.41675C16.4993 5.91029 16.0891 5.50008 15.5827 5.50008ZM10.9993 6.41675C8.47631 6.41675 6.41602 8.47704 6.41602 11.0001C6.41602 13.5231 8.47631 15.5834 10.9993 15.5834C13.5224 15.5834 15.5827 13.5231 15.5827 11.0001C15.5827 8.47704 13.5224 6.41675 10.9993 6.41675ZM10.9993 7.79175C12.7791 7.79175 14.2077 9.22029 14.2077 11.0001C14.2077 12.7799 12.7791 14.2084 10.9993 14.2084C9.21956 14.2084 7.79102 12.7799 7.79102 11.0001C7.79102 9.22029 9.21956 7.79175 10.9993 7.79175Z" fill="#000106"/>
</svg>
