<svg width="22" height="22" viewBox="0 0 22 22" fill="none" xmlns="http://www.w3.org/2000/svg">
<path d="M10.934 3.89575C8.02234 3.89575 5.31709 4.1032 3.77344 4.4257C3.77015 4.42657 3.76687 4.42747 3.76359 4.42839C2.60061 4.68899 1.50552 5.52203 1.27498 6.82658C1.27468 6.82837 1.27438 6.83016 1.27409 6.83195C1.09698 7.88337 0.916016 9.25399 0.916016 11.2291C0.916016 13.2004 1.0976 14.5347 1.32153 15.6414C1.55772 16.9075 2.62753 17.7657 3.80835 18.0298C3.814 18.0313 3.81967 18.0328 3.82536 18.0343C5.43642 18.3517 8.06531 18.5624 10.977 18.5624C13.8886 18.5624 16.5189 18.3517 18.1304 18.0343C18.1361 18.0328 18.1417 18.0313 18.1474 18.0298C19.3104 17.7692 20.4055 16.9361 20.636 15.6316C20.6366 15.6283 20.6372 15.625 20.6378 15.6217C20.8122 14.5489 21.0381 13.1796 21.0827 11.2013C21.0827 11.1963 21.0827 11.1912 21.0827 11.1861C21.0827 9.20678 20.8561 7.82764 20.6351 6.73527C20.4008 5.46649 19.3297 4.60593 18.1474 4.34155C18.1293 4.33754 18.1111 4.33425 18.0928 4.33171C16.5206 4.11069 13.8461 3.89575 10.934 3.89575ZM9.23763 7.79248C9.4074 7.78897 9.58288 7.82912 9.74788 7.92228L13.6912 10.1504C14.3562 10.5262 14.3562 11.4745 13.6912 11.8503L9.74788 14.0784C9.08834 14.4506 8.26636 13.9792 8.26636 13.228V8.77181C8.26636 8.2084 8.72832 7.80301 9.23763 7.79248Z" fill="#000106"/>
</svg>
