<svg width="14" height="14" viewBox="0 0 14 14" fill="none" xmlns="http://www.w3.org/2000/svg">
<path d="M7 0C3.1402 0 0 3.1402 0 7C0 10.8598 3.1402 14 7 14C10.8598 14 14 10.8598 14 7C14 3.1402 10.8598 0 7 0ZM9.99635 5.79635L6.49635 9.29635C6.3938 9.3989 6.2594 9.45 6.125 9.45C5.9906 9.45 5.8562 9.3989 5.75365 9.29635L4.00365 7.54635C3.79855 7.34125 3.79855 7.0091 4.00365 6.804C4.20875 6.5989 4.5409 6.5989 4.746 6.804L6.12465 8.18265L9.2533 5.054C9.4584 4.8489 9.79055 4.8489 9.99565 5.054C10.2007 5.2591 10.2011 5.59125 9.99635 5.79635Z" fill="#25B757"/>
<path d="M9.99635 5.79635L6.49635 9.29635C6.3938 9.3989 6.2594 9.45 6.125 9.45C5.9906 9.45 5.8562 9.3989 5.75365 9.29635L4.00365 7.54635C3.79855 7.34125 3.79855 7.0091 4.00365 6.804C4.20875 6.5989 4.5409 6.5989 4.746 6.804L6.12465 8.18265L9.2533 5.054C9.4584 4.8489 9.79055 4.8489 9.99565 5.054C10.2007 5.2591 10.2011 5.59125 9.99635 5.79635Z" fill="#25B757"/>
<path fill-rule="evenodd" clip-rule="evenodd" d="M5.93102 8.13878L9.4201 4L11 5.271L6.17032 11L3 8.29012L4.34775 6.78545L5.93102 8.13878Z" fill="white"/>
</svg>
