<svg width="18" height="18" viewBox="0 0 18 18" fill="none" xmlns="http://www.w3.org/2000/svg">
<path d="M1.90717 0.522153C1.72894 0.711332 1.63136 0.962467 1.6351 1.22235L1.6351 3.9251C1.61418 4.07832 1.62906 4.2343 1.67859 4.38078C1.72812 4.52727 1.81095 4.66028 1.92056 4.76936C2.03017 4.87843 2.16358 4.9606 2.31031 5.00942C2.45704 5.05823 2.61309 5.07235 2.7662 5.05067L5.46342 5.05067C5.59644 5.05338 5.72867 5.02952 5.85235 4.98049C5.97604 4.93145 6.08869 4.85824 6.18372 4.76512C6.27876 4.672 6.35425 4.56086 6.40579 4.4382C6.45733 4.31554 6.48388 4.18383 6.48388 4.05078C6.48388 3.91773 6.45733 3.78602 6.40579 3.66336C6.35425 3.5407 6.27876 3.42956 6.18372 3.33644C6.08869 3.24333 5.97604 3.17011 5.85235 3.12107C5.72867 3.07204 5.59645 3.04818 5.46342 3.05089L5.31841 3.05089C8.0202 1.37103 11.5978 1.6999 13.9487 4.05078C15.5107 5.61272 16.1591 7.71421 15.9381 9.75528C15.9096 10.019 15.9869 10.2833 16.1532 10.49C16.2355 10.5923 16.3372 10.6774 16.4525 10.7405C16.5677 10.8035 16.6942 10.8432 16.8248 10.8574C16.9554 10.8715 17.0875 10.8598 17.2135 10.8229C17.3396 10.786 17.4571 10.7246 17.5595 10.6423C17.7661 10.476 17.8983 10.2345 17.9269 9.97073C18.2093 7.36186 17.3655 4.63915 15.3629 2.63657C12.1713 -0.55507 7.15509 -0.83132 3.63489 1.78721L3.63489 1.22235C3.63775 1.02085 3.57966 0.823189 3.46825 0.655266C3.35684 0.487343 3.1973 0.356995 3.01053 0.281303C2.82376 0.205612 2.61849 0.188107 2.4216 0.231085C2.22472 0.274062 2.04541 0.375517 1.90717 0.522153ZM0.344496 7.43233C0.188547 7.59514 0.0921859 7.80587 0.0710445 8.03033C-0.211424 10.6392 0.632415 13.3619 2.635 15.3645C5.82664 18.5561 10.8428 18.8324 14.363 16.2138V16.7787C14.3603 16.9117 14.3842 17.0439 14.4332 17.1676C14.4822 17.2913 14.5555 17.404 14.6486 17.499C14.7417 17.594 14.8528 17.6695 14.9755 17.7211C15.0982 17.7726 15.2299 17.7992 15.3629 17.7992C15.496 17.7992 15.6277 17.7726 15.7503 17.7211C15.873 17.6695 15.9841 17.594 16.0773 17.499C16.1704 17.404 16.2436 17.2913 16.2926 17.1676C16.3417 17.0439 16.3655 16.9117 16.3628 16.7787V14.076C16.3837 13.9227 16.3689 13.7668 16.3193 13.6203C16.2698 13.4738 16.187 13.3408 16.0774 13.2317C15.9677 13.1226 15.8343 13.0405 15.6876 12.9916C15.5409 12.9428 15.3848 12.9287 15.2317 12.9504H12.5345C12.4007 12.9485 12.2679 12.9736 12.1439 13.024C12.02 13.0744 11.9074 13.1492 11.8129 13.2439C11.6725 13.3846 11.5772 13.5641 11.5392 13.7593C11.5013 13.9545 11.5224 14.1566 11.5998 14.3397C11.6773 14.5228 11.8076 14.6787 11.9741 14.7875C12.1405 14.8962 12.3357 14.9529 12.5345 14.9502H12.6795C9.97772 16.63 6.40009 16.3012 4.04921 13.9503C2.48727 12.3883 1.83879 10.2868 2.05978 8.24577C2.08544 8.03722 2.04475 7.82587 1.9435 7.64175C1.84224 7.45762 1.68556 7.31007 1.4957 7.22003C1.30584 7.12999 1.09244 7.10204 0.885792 7.14015C0.679146 7.17826 0.489753 7.28049 0.344496 7.43233Z" fill="white"/>
</svg>
