<svg width="36" height="36" viewBox="0 0 36 36" fill="none" xmlns="http://www.w3.org/2000/svg">
<path d="M3.65234 32.4773L5.67284 25.101C4.42634 22.9425 3.77084 20.493 3.77159 17.9843C3.77534 10.1355 10.1623 3.75 18.0118 3.75C21.8211 3.7515 25.3956 5.23425 28.0843 7.9245C30.7723 10.6155 32.2528 14.1915 32.2513 17.9955C32.2483 25.8442 25.8598 32.2305 18.0118 32.2305C18.0111 32.2305 18.0118 32.2305 18.0118 32.2305H18.0058C15.6231 32.2297 13.2808 31.632 11.2011 30.4972L3.65234 32.4773Z" fill="white"/>
<path d="M3.65202 32.8523C3.55302 32.8523 3.45702 32.8133 3.38577 32.7413C3.29202 32.646 3.25527 32.5073 3.29052 32.379L5.26977 25.152C4.04277 22.9725 3.39552 20.4975 3.39702 17.985C3.40002 9.9285 9.95577 3.375 18.0115 3.375C21.919 3.3765 25.5903 4.89825 28.3495 7.65975C31.1088 10.422 32.6275 14.0925 32.626 17.9955C32.623 26.0513 26.0665 32.6055 18.0115 32.6055C15.6198 32.6048 13.2535 32.0145 11.1535 30.8978L3.74727 32.8395C3.71577 32.8485 3.68427 32.8523 3.65202 32.8523Z" fill="white"/>
<path d="M18.0122 3.75C21.8214 3.7515 25.3959 5.23425 28.0847 7.9245C30.7727 10.6155 32.2532 14.1915 32.2516 17.9955C32.2486 25.8442 25.8602 32.2305 18.0122 32.2305H18.0062C15.6234 32.2297 13.2812 31.632 11.2014 30.4972L3.65265 32.4773L5.67315 25.101C4.42665 22.9425 3.77115 20.493 3.7719 17.9843C3.77565 10.1355 10.1627 3.75 18.0122 3.75ZM18.0122 3C9.75015 3 3.02565 9.7215 3.0219 17.9843C3.02115 20.5095 3.65865 22.998 4.86765 25.2008L2.9289 32.28C2.8584 32.5388 2.9304 32.8148 3.1194 33.0052C3.2619 33.1493 3.45465 33.228 3.65265 33.228C3.7164 33.228 3.78015 33.2197 3.84315 33.2033L11.1084 31.2982C13.2294 32.3993 15.6069 32.9805 18.0062 32.9812C26.2742 32.9812 32.9986 26.259 33.0024 17.9963C33.0039 13.992 31.4461 10.227 28.6164 7.395C25.7852 4.56225 22.0194 3.0015 18.0122 3Z" fill="#CFD8DC"/>
<path d="M26.3838 9.62404C24.1488 7.38754 21.178 6.15529 18.016 6.15454C11.488 6.15454 6.17878 11.4615 6.17578 17.985C6.17503 20.2208 6.80053 22.3973 7.98553 24.282L8.26753 24.7298L7.07128 29.0955L11.551 27.921L11.9838 28.1775C13.8003 29.256 15.8838 29.826 18.0078 29.8268H18.0123C24.5358 29.8268 29.845 24.519 29.8473 17.9948C29.848 14.8335 28.6188 11.8605 26.3838 9.62404Z" fill="#40C351"/>
<path fill-rule="evenodd" clip-rule="evenodd" d="M14.4507 12.0337C14.1844 11.4412 13.9039 11.4292 13.6497 11.4187C13.4419 11.4097 13.2049 11.4104 12.9679 11.4104C12.7309 11.4104 12.3454 11.4997 12.0192 11.8559C11.6929 12.2122 10.7734 13.0724 10.7734 14.8229C10.7734 16.5734 12.0484 18.2654 12.2262 18.5024C12.4039 18.7394 14.6877 22.4467 18.3042 23.8732C21.3094 25.0582 21.9214 24.8227 22.5739 24.7634C23.2264 24.7042 24.6792 23.9032 24.9754 23.0722C25.2717 22.2412 25.2717 21.5294 25.1832 21.3809C25.0939 21.2324 24.8569 21.1439 24.5014 20.9654C24.1459 20.7869 22.3962 19.9267 22.0699 19.8082C21.7437 19.6897 21.5067 19.6304 21.2689 19.9867C21.0319 20.3422 20.3502 21.1439 20.1424 21.3809C19.9347 21.6187 19.7269 21.6487 19.3714 21.4702C19.0159 21.2917 17.8699 20.9167 16.5102 19.7047C15.4527 18.7619 14.7387 17.5972 14.5309 17.2409C14.3232 16.8854 14.5084 16.6927 14.6869 16.5149C14.8467 16.3552 15.0424 16.0994 15.2209 15.8917C15.3987 15.6839 15.4579 15.5354 15.5764 15.2984C15.6949 15.0607 15.6357 14.8529 15.5464 14.6752C15.4587 14.4967 14.7672 12.7372 14.4507 12.0337Z" fill="white"/>
</svg>
