<svg width="26" height="26" viewBox="0 0 26 26" fill="none" xmlns="http://www.w3.org/2000/svg">
<path d="M14.8848 3.79158C14.6714 3.79466 14.4677 3.88162 14.3179 4.03366C14.168 4.1857 14.084 4.3906 14.084 4.60408V8.82104C12.6444 8.98162 10.2776 9.3942 7.89502 10.9369C5.18981 12.6885 2.78491 15.9088 2.72909 21.2254C2.72827 21.2295 2.72566 21.232 2.72485 21.236H2.72697C2.72639 21.2945 2.70898 21.3368 2.70898 21.3958C2.7092 21.5972 2.78424 21.7914 2.91956 21.9407C3.05488 22.0899 3.24081 22.1836 3.44129 22.2035C3.64177 22.2234 3.84249 22.1681 4.00451 22.0484C4.16653 21.9286 4.27829 21.753 4.31812 21.5555C4.96126 18.34 6.96604 16.9151 9.18783 16.1843C11.0631 15.5676 12.899 15.5673 14.084 15.63V19.7708C14.084 19.9314 14.1317 20.0885 14.221 20.222C14.3103 20.3556 14.4372 20.4597 14.5856 20.5212C14.7341 20.5826 14.8974 20.5987 15.055 20.5674C15.2125 20.5361 15.3573 20.4588 15.4709 20.3452L23.0543 12.7619C23.2066 12.6095 23.2922 12.4029 23.2922 12.1874C23.2922 11.972 23.2066 11.7653 23.0543 11.613L15.4709 4.02962C15.3941 3.95277 15.3027 3.89211 15.202 3.85123C15.1013 3.81034 14.9935 3.79006 14.8848 3.79158ZM15.709 6.56551L21.3309 12.1874L15.709 17.8093V14.8333C15.7091 14.631 15.6336 14.4359 15.4975 14.2862C15.3613 14.1365 15.1741 14.043 14.9727 14.024C13.8438 13.9183 11.2617 13.7916 8.68001 14.6408C7.47387 15.0375 6.27609 15.7052 5.24805 16.6593C6.07087 14.6475 7.33792 13.2344 8.7784 12.3017C11.1476 10.7676 13.8702 10.3948 14.9557 10.3149C15.1604 10.2999 15.3519 10.208 15.4916 10.0577C15.6313 9.90734 15.709 9.70971 15.709 9.50448V6.56551Z" fill="#2D3646"/>
</svg>
